<?xml version="1.0" encoding="utf-8"?>
<!-- Generator: Adobe Illustrator 24.2.3, SVG Export Plug-In . SVG Version: 6.00 Build 0)  -->
<svg version="1.1" id="Layer_1" xmlns="http://www.w3.org/2000/svg" xmlns:xlink="http://www.w3.org/1999/xlink" x="0px" y="0px"
	 viewBox="0 0 27.8 37.5" style="enable-background:new 0 0 27.8 37.5;" xml:space="preserve">
<style type="text/css">
	.st0{fill:#171610;}
	.st1{fill:#DA9D28;}
	.st2{fill:#DFD687;}
	.st3{fill:#F2EC69;}
	.st4{fill:#80473D;}
	.st5{fill:#80774D;}
	.st6{fill:#87883A;}
	.st7{fill:#795B25;}
	.st8{fill:#1A7D6D;}
	.st9{fill:#F29F9B;}
	.st10{fill:#13463C;}
	.st11{fill:#EDEEB2;}
	.st12{fill:#848564;}
	.st13{fill:#FFFFFF;}
	.st14{fill:#BC5927;}
	.st15{fill:#6A3316;}
</style>
<g id="DfCvNZ.tif">
	<g>
		<path class="st0" d="M5.6,21.3c-0.8-0.8-1.4-1.6-1.9-2.5c-0.1-0.2-0.2-0.4-0.3-0.6c0-0.1-0.1-0.1,0-0.2c0.1-0.1,0.1,0,0.2,0
			c0.2,0.1,0.4,0.2,0.6,0.3c-0.1-0.3-0.3-0.5-0.4-0.8c-0.4-0.5-0.8-1-1.4-1.4c-0.7-0.4-1.2-1.1-1.6-1.8c0-0.1,0-0.1,0-0.2
			c0.1-0.1,0.1,0,0.2,0c0.4,0.4,1,0.4,1.5,0.5c0.6,0.1,1.2,0,1.8,0.1c1.4,0.2,2.8,0.7,4,1.4c0,0,0.1,0.1,0.1,0.1c0,0,0,0,0,0
			c0-0.2-0.1-0.3-0.2-0.5c0-0.1-0.1-0.1,0-0.2c0.1-0.1,0.1-0.1,0.2-0.1c0.4,0,0.9,0.2,1.2,0.5c0-0.2,0.1-0.4,0.1-0.5
			c0-0.1,0.1-0.2,0.2-0.2c0.1,0,0.1,0.1,0.2,0.2c0,0,0,0.1,0.1,0.1c0,0,0,0,0,0c0,0,0-0.1,0-0.1c-0.1-0.3-0.2-0.7-0.3-1
			c-0.1-0.4-0.1-0.7,0.1-1.1c0.2-0.3,0.1-0.6,0.1-0.8c0,0,0-0.1,0-0.1c0-0.1-0.1-0.2,0.1-0.3c0.1,0,0.2,0.1,0.2,0.2
			c0,0.1,0.1,0.2,0.2,0.3c0.4,0.4,0.9,0.7,1.4,1c0.2,0.1,0.3,0,0.3-0.2c0-0.2-0.1-0.5-0.2-0.7c-0.4-1.2-0.9-2.3-1.5-3.5
			c-0.5-1.2-0.9-2.4-1.1-3.6C9.6,5.2,9.5,4.6,9.6,4c0.1-0.4,0.2-0.4,0.5-0.2c0.1,0.1,0.2,0.2,0.3,0.4c0-0.3-0.1-0.5-0.1-0.7
			c-0.1-0.7,0-1.3,0.1-2c0.1-0.2,0.1-0.4,0.3-0.5c0.1-0.1,0.2-0.1,0.3-0.1c0.1,0,0.1,0.1,0.1,0.2c0,0,0,0.1,0,0.1
			c0,0.3,0.1,0.6,0.4,0.8c0.4,0.5,0.6,1.1,0.7,1.7c0.1,0.7,0.1,1.4,0.2,2c0,0.4,0,0.9,0.1,1.3c0.1,0.2,0.1,0.4,0.3,0.6
			c0.3,0.2,0.6,0.1,0.7-0.2c0.1-0.2,0-0.5,0-0.7c0-0.2,0-0.2,0.2-0.2c0.3,0.1,0.5,0.3,0.7,0.5c0.3,0.6,0.5,1.2,0.5,1.8
			c0.1,0.8,0.1,1.6,0.2,2.5c0.1,0.7,0.2,1.3,0.5,1.9c0,0.1,0.1,0.1,0.1,0.2c0.1-0.1,0.2-0.3,0.3-0.4c0.1-0.2,0.2-0.3,0.3-0.5
			c0-0.1,0.1-0.1,0.2-0.1c0.1,0,0.1,0.1,0.1,0.1c0.3,0.7,0.6,1.5,0.7,2.2c0.1,0.7,0.1,1.5,0,2.2c0.2-0.2,0.3-0.3,0.4-0.5
			c0.1-0.2,0.2-0.2,0.3,0c0.3,0.4,0.4,0.8,0.3,1.3c0.4-0.3,0.9-0.5,1.4-0.6c0.2-0.1,0.4-0.1,0.6-0.1c0.1,0,0.2,0,0.2,0.1
			c0,0.1,0,0.2-0.1,0.2c-0.2,0.2-0.4,0.4-0.5,0.7c0.3-0.1,0.6-0.3,0.9-0.4c0.9-0.3,1.9-0.5,2.9-0.4c0.5,0,1,0.2,1.5,0.2
			c0.6,0.1,1.2,0.2,1.8,0c0.1,0,0.2,0.1,0.2,0.2c0,0.1-0.1,0.2-0.1,0.3c-0.8,0.9-1.6,1.8-2.6,2.5c-0.4,0.3-0.8,0.4-1.3,0.6
			c0.1,0.1,0.1,0.2,0,0.3c-0.1,0.3-0.4,0.6-0.7,0.8c-0.3,0.2-0.6,0.3-0.9,0.5c-0.1,0.1-0.3,0.1-0.3,0.3c0,0.2,0.2,0.2,0.3,0.3
			c0.1,0,0.2,0.1,0.4,0.1c0.1,0,0.1,0,0.2,0.1c0,0.1,0,0.2-0.1,0.2c-0.3,0.3-0.7,0.5-1.1,0.6c-0.1,0-0.2,0.1-0.2,0.2
			c0,0.9-0.3,1.6-1,2.1c-0.1,0.1-0.1,0.2,0,0.3c0.2,0.3,0.6,0.4,0.9,0.4c0.3,0,0.5-0.2,0.7-0.2c0.4-0.1,0.8,0.1,1,0.4
			c0.3,0.4,0.5,0.3,0.6-0.1c0.1-0.2,0.1-0.3,0.1-0.5c0-0.1,0-0.2,0-0.2c0-0.3,0.1-0.6,0.4-0.7c0.3-0.2,0.6,0,0.9,0.2
			c0.1,0.1,0.2,0.3,0.3,0.4c0.1,0.2,0.2,0.3,0.4,0.3c0.2,0,0.4-0.2,0.4-0.5c0-0.1,0-0.2,0-0.4c0-0.1,0-0.1,0.1-0.1
			c0,0,0.1,0,0.1,0.1c0.1,0.3-0.1,0.9-0.5,1c-0.2,0.1-0.5,0-0.6-0.3c-0.2-0.2-0.3-0.5-0.6-0.5c-0.4-0.1-0.7,0.1-0.8,0.5
			c0,0.2,0,0.5-0.1,0.7c0,0.1-0.1,0.2-0.1,0.3c-0.2,0.4-0.5,0.5-0.8,0.1c-0.1-0.1-0.2-0.2-0.3-0.3c0,0,0,0-0.1,0c0,0,0,0,0,0.1
			c0.2,0.3,0.2,0.5,0,0.8c-0.1,0.1-0.1,0.1-0.2,0.2c-0.2,0.3-0.2,0.6,0.1,0.7c0.1,0.1,0.3,0.1,0.4,0.2c0.3,0.1,0.5,0.2,0.5,0.5
			c0,0.3-0.2,0.5-0.4,0.7c-0.1,0.1-0.3,0.2-0.4,0.2c0.3,0.1,0.7,0.2,1,0.3c0.1,0,0.2,0,0.4,0c0.3,0,0.5-0.1,0.6-0.4
			c0.1-0.2,0.1-0.5,0.1-0.7c0-0.1,0.1-0.3,0.1-0.4c0.2-0.4,0.6-0.5,1-0.2c0.5,0.3,0.8,0.7,1.2,1.1c0,0,0,0,0,0
			c0.1,0.1,0.2,0.3,0.5,0.3c0.2,0,0.2-0.2,0.3-0.4c0,0,0-0.1,0.1-0.1c0.2-0.4,0.4-0.4,0.7-0.2c0.3,0.2,0.5,0.4,0.8,0.6
			c0,0,0.2,0.1,0.1,0.2c-0.1,0.1-0.1,0-0.2-0.1c-0.3-0.2-0.5-0.4-0.8-0.7c-0.2-0.2-0.3-0.1-0.4,0.1c0,0.1-0.1,0.2-0.1,0.3
			c-0.2,0.3-0.4,0.4-0.7,0.2c-0.2-0.1-0.3-0.3-0.4-0.4c-0.2-0.3-0.5-0.5-0.8-0.8c-0.2-0.2-0.4-0.3-0.7-0.2c-0.3,0.1-0.4,0.4-0.4,0.7
			c0,0.2,0,0.5-0.1,0.7c-0.1,0.4-0.4,0.5-0.8,0.5c-0.5-0.1-0.9-0.2-1.4-0.3c-0.1,0-0.6,0.1-0.7,0.3c-0.1,0.1,0,0.2,0.1,0.3
			c0.2,0.2,0.5,0.3,0.7,0.5c0.1,0.1,0.3,0.3,0.4,0.5c0,0.1,0.1,0.1,0.2,0.1c0.2,0,0.3,0,0.5-0.1c0.4-0.1,0.6-0.1,0.7,0.3
			c0.1,0.2,0.2,0.3,0.3,0.5c0.4,0.6,1.1,1,1.8,0.5c0,0,0.1-0.1,0.1,0c0.1,0.1,0,0.1-0.1,0.1c-0.4,0.3-1,0.3-1.5-0.1
			c-0.3-0.2-0.5-0.5-0.6-0.8c0-0.1-0.1-0.2-0.1-0.2c-0.1-0.2-0.3-0.3-0.5-0.2c-0.2,0.1-0.4,0.1-0.7,0.1c0.1,0.3-0.1,0.6-0.4,0.7
			c-0.4,0.3-0.9,0.3-1.4,0.5c-0.1,0-0.1,0-0.2,0c-0.6,0.1-1,0.5-1.1,1.1c-0.1,0.3-0.1,0.5-0.2,0.8c-0.3,0.6-0.9,0.9-1.5,0.8
			c-0.5-0.1-0.9-0.2-1.4-0.4c-0.6-0.3-1.1-0.2-1.7,0.1c-0.4,0.2-0.8,0.5-1.3,0.6c-0.8,0.3-1.5,0-2-0.6c-0.1-0.1-0.2-0.3-0.3-0.5
			c-0.4-0.5-0.6-0.6-1.2-0.5c-0.2,0-0.4,0.1-0.6,0.1c-0.8,0.1-1.4-0.2-1.7-0.9c-0.1-0.3-0.2-0.6-0.3-0.9c-0.2-0.6-0.6-1-1.2-1.2
			c-0.1,0-0.3-0.2-0.4-0.1c-0.2,0-0.1,0.3-0.2,0.4c-0.2,0.4-0.5,0.5-0.9,0.3c-0.1,0-0.1-0.1-0.2-0.1c-0.1-0.1-0.3,0-0.4,0.1
			c-0.1,0.1-0.1,0.2-0.2,0.3c-0.2,0.3-0.6,0.4-1,0.2c0,0-0.1,0-0.1-0.1c0-0.1,0.1,0,0.2,0c0.4,0.2,0.6,0.1,0.8-0.2
			c0,0,0-0.1,0.1-0.1c0.2-0.3,0.4-0.3,0.7-0.2c0.1,0.1,0.2,0.1,0.3,0.2c0.2,0.1,0.3,0,0.4-0.1c0.1-0.2,0.1-0.4,0.2-0.5
			c0-0.1-0.1-0.1-0.1-0.1c-0.3-0.1-0.5-0.2-0.8-0.4c-0.2-0.1-0.3-0.3-0.4-0.4c-0.1-0.2,0-0.4,0.2-0.5c0.1,0,0.1-0.1,0.2-0.1
			c0.3-0.1,0.3-0.3,0.1-0.6c-0.1-0.1-0.3-0.3-0.4-0.4C4,29.2,3.9,29.1,3.9,29c-0.1-0.2-0.3-0.3-0.5-0.3c-0.3,0.1-0.5,0.2-0.7,0.4
			c-0.3,0.3-0.7,0.6-1.2,0.6c-0.4,0.1-0.7,0-1.1-0.1c-0.1,0-0.1,0-0.1-0.1c0-0.1,0.1,0,0.1,0c0.8,0.3,1.5,0.1,2.1-0.5
			c0,0,0.1-0.1,0.1-0.1c0.3-0.3,0.7-0.5,1.2-0.3C3.9,28.2,4.2,28,4.6,28c0.2,0,0.3-0.1,0.3-0.4c0-0.2-0.1-0.4-0.1-0.6
			c-0.1-0.3-0.2-0.5-0.6-0.5c-0.2,0-0.4,0-0.6,0.1c-0.1,0.1-0.2,0.1-0.4,0.2c-0.4,0.2-0.7,0.1-0.9-0.2c-0.1-0.1-0.2-0.3-0.2-0.5
			c-0.2-0.4-0.3-0.4-0.7-0.3c-0.6,0.2-1,0.1-1.5-0.3c-0.1-0.1-0.2-0.2-0.2-0.3c0,0-0.1-0.1,0-0.1c0.1,0,0.1,0,0.1,0.1
			c0.4,0.6,0.8,0.8,1.5,0.6c0.5-0.1,0.7,0,0.9,0.4c0.1,0.2,0.1,0.3,0.3,0.5c0.2,0.2,0.4,0.3,0.6,0.2c0.1-0.1,0.2-0.1,0.3-0.2
			c0.3-0.2,0.7-0.2,1.1-0.1c0,0,0.1,0,0.1,0c0-0.2,0-0.3,0.1-0.5c0.1-0.2,0.2-0.3,0.4-0.2c0.2,0,0.4,0.1,0.6,0.2
			c0.2,0.1,0.5,0.1,0.7,0c0.3-0.1,0.5-0.2,0.7-0.4c0.1-0.1,0.1-0.1,0-0.2c-0.4-0.8-0.5-1.6-0.4-2.4c0-0.2-0.1-0.2-0.2-0.2
			c-0.6-0.1-1-0.4-1.2-0.9c0-0.1-0.1-0.2-0.1-0.3c0-0.2,0-0.3,0.3-0.2C5.5,21.4,5.5,21.4,5.6,21.3C5.6,21.4,5.6,21.4,5.6,21.3z
			 M4.4,29.2C4.4,29.1,4.3,29.1,4.4,29.2C4.3,29.1,4.3,29.2,4.4,29.2C4.4,29.2,4.4,29.2,4.4,29.2c0.1,0.2,0.2,0.2,0.2,0.3
			c0.2,0.2,0.3,0.5,0.2,0.8c-0.1,0.1-0.3,0.2-0.4,0.3c-0.1,0-0.2,0.1-0.1,0.2c0,0.1,0,0.1,0.1,0.1c0.2,0.3,0.5,0.5,0.8,0.6
			c0.2,0.1,0.3,0.1,0.5,0c0.1-0.1,0.2-0.1,0.3-0.1c0.3,0,0.5,0,0.8,0c0.5,0,0.7-0.3,0.5-0.8c0.1-0.1,0.2,0,0.2,0.1
			c0.2,0.3-0.1,0.7-0.5,0.8c-0.2,0-0.4,0-0.6,0c-0.2,0-0.5-0.1-0.7,0.1c0.1,0.1,0.2,0.1,0.3,0.1c0.4,0.2,0.8,0.4,1,0.7
			c0.2,0.3,0.3,0.6,0.4,0.9c0.1,0.1,0.1,0.3,0.2,0.4C7.6,34,7.8,34.3,8,34.5c0.3,0.2,0.6,0.3,1,0.2c0.2,0,0.4-0.1,0.6-0.1
			c0.5-0.1,1-0.1,1.3,0.3c0.2,0.2,0.3,0.5,0.6,0.7c0.3,0.5,1,0.7,1.5,0.5c0.2,0,0.4-0.1,0.6-0.2c0.5-0.3,1-0.6,1.5-0.7
			c0.5,0,0.9,0.1,1.3,0.3c0.4,0.2,0.8,0.3,1.2,0.3c0.5,0,1-0.2,1.1-0.6c0.1-0.3,0.2-0.6,0.3-0.9c0.1-0.5,0.4-0.9,1-1.1
			c0.2-0.1,0.4-0.1,0.6-0.2c0.4-0.1,0.8-0.2,1.1-0.4c0.1-0.1,0.3-0.1,0.3-0.3c0-0.1,0-0.2-0.1-0.2c-0.6-0.2-1.1-0.6-1.6-1
			c0,0-0.1-0.1-0.1-0.2c0.1-0.1,0.1,0,0.2,0.1c0.3,0.3,0.6,0.5,0.9,0.7c0.2,0.1,0.3,0.2,0.5,0.2c-0.2-0.3-0.4-0.4-0.6-0.6
			c-0.2-0.2-0.4-0.3-0.5-0.5c-0.1-0.4,0.1-0.6,0.5-0.7c-0.2-0.1-0.4-0.2-0.6-0.3c-0.1-0.1-0.2-0.1-0.2-0.2c0,0-0.2-0.1-0.1-0.2
			c0.1-0.1,0.1,0,0.2,0c0.2,0.1,0.3,0.2,0.5,0.3c0.1,0.1,0.3,0.2,0.5,0.2c0.3-0.1,0.5-0.2,0.7-0.4l0,0c0,0,0,0,0,0
			c0.3-0.2,0.2-0.4-0.1-0.6c-0.3-0.1-0.5-0.2-0.8-0.3c0,0,0-0.1,0-0.1c-0.3-0.4-0.2-0.7,0.1-1c0.1-0.1,0.1-0.2,0.2-0.2
			c0.1-0.2,0.1-0.3-0.1-0.4c-0.2-0.1-0.5,0-0.7,0c-0.1,0-0.2,0-0.2,0.1c-0.2,0.2-0.3,0.5-0.5,0.8c0,0.1,0,0.2-0.1,0.1
			c-0.1,0,0-0.1,0-0.2c0.1-0.3,0.3-0.5,0.5-0.8c-0.1,0-0.2,0-0.3,0c-0.4-0.1-0.8-0.3-0.9-0.7c0-0.1-0.1-0.1-0.2,0
			c-0.9,0.5-2.1,0.5-3-0.2c-0.1-0.1-0.3-0.1-0.4-0.1c-0.3,0-0.4,0.1-0.3,0.4c0.2,0.3,0,0.6-0.3,0.7c-0.1,0-0.3,0.1-0.4,0.1
			c-0.1,0-0.2,0-0.3-0.1c-0.1-0.1-0.1-0.2-0.2-0.3c0,0.1-0.2,0.2-0.1,0.3c0.2,0.4,0.2,0.7,0.3,1.1c0,0.2-0.1,0.4-0.1,0.6
			c0.5,0,0.9,0,1.3-0.1c0.9-0.2,1.7-0.5,2.6-0.3c0.1,0,0.1,0.1,0.2,0.1c0.4,0.2,0.5,0.6,0.3,1c0,0.1-0.1,0.1-0.1,0.2
			c-0.3,0.4-0.7,0.8-1.1,1.1c-0.7,0.6-1.6,0.9-2.5,1c-1.7,0.1-3.3-0.3-4.8-1.1c-0.6-0.3-1.1-0.7-1.4-1.2c-0.2-0.3-0.4-0.7,0-1.1
			c0.4-0.2,0.9-0.3,1.3-0.3c0.7,0,1.4,0.2,2.1,0.4c0.1,0,0.2,0.1,0.3,0c0,0,0.1,0,0.1,0c0,0.1,0,0.1,0.1,0c0.2,0.1,0.3,0.1,0.5,0.2
			c0.2,0.2,0.5,0.2,0.7,0.2c0.3,0,0.4-0.2,0.4-0.4c0,0,0,0,0-0.1c0,0,0,0,0-0.1c0.1-0.4,0-0.8-0.2-1.2c0-0.1-0.1-0.1-0.2-0.1
			c-0.2,0-0.3,0-0.5,0c-0.5-0.1-0.6-0.2-0.5-0.7c0.1-0.2,0.1-0.3,0.2-0.5c0.2-0.4,0.5-0.6,0.9-0.5c0.2,0,0.3,0.1,0.5,0.1
			c0.3,0.1,0.6,0.3,0.8,0.6c0.1-0.2,0.3-0.3,0.5-0.3c-0.7-0.8-0.9-1.8-0.7-2.7c0.1-0.2,0.2-0.4,0.2-0.6c0.1-0.1,0.2-0.3,0.3-0.4
			c0.3-0.4,0.7-0.7,1.2-0.9c0.4-0.1,0.8-0.2,1.2-0.1c0.1,0,0.2,0,0.2-0.1c0.1-0.3,0-0.6-0.3-0.8c-0.1-0.1-0.3-0.2-0.4-0.3
			c-0.3-0.2-0.5-0.5-0.4-0.9c0.1-0.1,0.1-0.3,0.2-0.4c0.2-0.3,0.4-0.6,0.6-0.8c0.2-0.3,0.2-0.6,0.1-0.9c0-0.2-0.1-0.3-0.2-0.4
			c0,0.1-0.1,0.1-0.1,0.1c-0.2,0.3-0.4,0.5-0.7,0.8c-0.1,0.1-0.1,0.1-0.2,0.1c-0.1,0-0.1-0.1-0.1-0.2c0,0,0,0,0-0.1l0,0c0,0,0,0,0,0
			c0.3-0.7,0.3-1.4,0.3-2.2c0-0.2,0-0.5-0.1-0.7c0-0.2-0.1-0.4-0.1-0.6c-0.1-0.4-0.2-0.7-0.4-1.1c-0.1,0.1-0.1,0.2-0.1,0.3
			c-0.1,0.2-0.3,0.4-0.5,0.6c-0.1,0.1-0.2,0.1-0.3-0.1c-0.1-0.1-0.2-0.3-0.2-0.4c-0.4-0.8-0.5-1.6-0.5-2.5c0-0.7,0-1.4-0.2-2.1
			c-0.1-0.5-0.2-1.1-0.5-1.6c-0.1-0.1-0.2-0.2-0.3-0.3c0,0.1,0,0.3,0,0.4c0,0.1,0,0.2-0.1,0.2C13.6,7.9,13,8,12.6,7.7
			c-0.2-0.2-0.3-0.5-0.4-0.7c0-0.1,0-0.3-0.1-0.4c0.1-0.2,0-0.5,0-0.7c0-0.7,0-1.5-0.2-2.2c-0.1-0.7-0.4-1.3-0.9-1.8
			c-0.1-0.1-0.2-0.2-0.2-0.4c0-0.1,0-0.2,0-0.3c-0.1,0.1-0.1,0.2-0.1,0.2c-0.2,0.6-0.2,1.3-0.2,1.9c0,0.4,0.2,0.8,0.2,1.3
			c0,0.1,0,0.2-0.1,0.2c-0.1,0-0.2,0-0.2-0.1c-0.1-0.1-0.2-0.3-0.3-0.5C10.1,4.1,10,4,9.9,4c0,0.1-0.1,0.3-0.1,0.4
			c0,1.6,0.4,3,1,4.5c0.5,1.2,1.1,2.4,1.5,3.6c0.1,0.3,0.3,0.7,0.3,1.1c0,0.2,0,0.4-0.2,0.6c-0.2,0.1-0.4,0.1-0.5,0
			c-0.1,0-0.2-0.1-0.3-0.1c-0.4-0.2-0.7-0.5-1.1-0.8c0,0,0,0,0,0c0,0,0,0,0,0c0,0,0,0,0,0c0,0,0,0.1,0,0.1c-0.1,0.2-0.1,0.3-0.2,0.5
			c-0.1,0.2-0.1,0.4-0.1,0.6c0,0.2,0.1,0.5,0.1,0.7c0.1,0.5,0.3,0.9,0.5,1.4c-0.1,0.1-0.2,0.1-0.3,0c-0.2-0.2-0.3-0.3-0.5-0.5
			c0,0.2-0.1,0.4-0.1,0.6c0,0.1,0,0.1,0,0.2c0.2,0.5,0.5,1,0.6,1.5c0,0.3-0.1,0.6-0.4,0.8c-0.2,0.2-0.4,0.3-0.6,0.4
			c-0.2,0.2-0.4,0.3-0.4,0.6c0,0.2,0.1,0.3,0.1,0.5c0,0,0,0-0.1,0c-0.1,0-0.1-0.1-0.2-0.2c-0.1-0.3,0-0.5,0.2-0.8
			c0.2-0.2,0.4-0.4,0.7-0.6c0.5-0.3,0.6-0.7,0.4-1.2c-0.1-0.3-0.3-0.7-0.5-1c-0.1-0.3-0.3-0.4-0.5-0.5C9.3,16.2,9,16.1,8.8,16
			c0,0,0,0,0,0c0,0,0,0,0,0c0,0.2,0.1,0.4,0.1,0.7c-0.1,0.2-0.1,0.2-0.3,0.1c-0.4-0.3-0.8-0.5-1.2-0.7c-1.1-0.5-2.2-0.8-3.4-0.9
			c-0.6,0-1.1,0-1.7-0.1c-0.3,0-0.6-0.1-0.8-0.2c0,0.1,0.1,0.2,0.2,0.2c0.2,0.3,0.4,0.6,0.7,0.7c0.5,0.4,1.1,0.7,1.4,1.2
			c0.4,0.5,0.8,1,1,1.7c-0.1,0.2-0.2,0.1-0.3,0.1c-0.2-0.1-0.3-0.2-0.5-0.2c0,0.1,0.1,0.1,0.1,0.2c0,0.1,0,0.1,0.1,0.2
			c0.5,0.9,1.1,1.6,1.8,2.3c0.1,0.1,0.2,0.1,0.1,0.2c-0.1,0.2-0.4,0.2-0.6,0.2c0.2,0.4,0.4,0.7,0.9,0.8c0.1,0.1,0.1,0,0.2,0
			c0.4,0.1,0.4,0,0.5-0.4c0.1-0.1,0.2-0.2,0.3-0.4c0,0,0,0,0.1,0c0.5-0.6,1.1-1,1.9-1.1c0,0,0.1,0,0.1,0c0.3,0,0.7,0,1,0
			c1.9,0.3,3.1,2.3,2.5,4.1c-0.2,0.4-0.4,0.8-0.7,1.2c0,0,0,0,0,0c0,0,0,0,0,0c0.1,0,0.2,0,0.3,0c0.2,0.1,0.3,0.3,0.3,0.5
			c-0.1,0-0.1-0.1-0.1-0.1c-0.1-0.2-0.2-0.2-0.4-0.2c-0.2,0-0.3,0.1-0.5,0.2c-1.4,1-3.2,0.7-4.3-0.6c-0.1-0.1-0.1-0.1-0.3,0
			c-0.6,0.4-1.2,0.7-1.9,0.4C4.9,26,4.8,26,4.9,26.5c0,0,0,0.1,0,0.1c0,0.1,0,0.1,0,0.2c0.2,0.3,0.5,0.5,0.7,0.8
			C6.1,28,6.5,28.1,7,28.1c0.1,0,0.1,0,0.1,0.1c0,0.1-0.1,0.1-0.1,0.1c0,0-0.1,0-0.1,0c-0.4,0-0.7-0.2-1.1-0.4
			c-0.1-0.2-0.3-0.3-0.5-0.5c-0.1-0.1-0.1-0.2-0.3-0.3c0,0.2,0,0.3,0.1,0.4c0,0.1,0,0.3,0,0.4c-0.1,0.2-0.4,0.3-0.6,0.3
			c-0.2,0.1-0.3,0.2-0.4,0.4c0,0.1,0,0.1,0,0.1c0.2,0.1,0.3,0.2,0.5,0.3c0,0,0,0,0,0c0.5,0.3,0.9,0.6,1.5,0.5c0.1,0,0.3,0,0.4-0.1
			c0.1,0,0.2-0.1,0.3-0.2c0,0,0.1,0,0.1,0c0,0,0,0.1,0,0.1c-0.1,0.1-0.2,0.1-0.2,0.2c-0.6,0.2-1.1,0.2-1.6-0.1
			C4.9,29.4,4.7,29.3,4.4,29.2C4.4,29.2,4.4,29.2,4.4,29.2z M17.1,29.3c0.1-0.1,0.1-0.3,0.1-0.4c0-0.1,0-0.1-0.1-0.1
			c-0.1,0-0.3,0-0.4,0.1c-0.3,0-0.3,0-0.2,0.3c0,0.1,0.1,0.1,0.1,0.2c0.1,0.1,0.1,0.3,0.3,0.3C17.1,29.7,17.1,29.4,17.1,29.3z
			 M19.4,17.3L19.4,17.3c-0.2,0-0.4,0.1-0.6,0.3c-0.2,0.1-0.4,0.2-0.5,0.3C18.2,18,18,18,17.9,18.1c-0.2,0.3-0.4,0.6-0.6,0.9
			c-0.2,0.3-0.2,0.6,0.1,0.8c0.1,0.1,0.3,0.2,0.4,0.3c0.4,0.3,0.6,0.7,0.5,1.2c0,0.1,0,0.1,0.1,0.1c0.3,0,0.6,0.2,0.9,0.4
			c0.5,0.4,0.9,0.8,1.1,1.4c0,0.1,0.1,0.3,0.1,0.4c0,0.1,0,0.1,0.1,0.1c0.3-0.1,0.7-0.1,0.9-0.4c0,0,0.1,0,0.1,0c0-0.1,0,0-0.1,0
			c-0.3-0.1-0.5-0.2-0.7-0.5c0-0.3,0.1-0.5,0.3-0.6c0.2-0.1,0.3-0.2,0.5-0.3c0.1-0.1,0.3-0.1,0.3-0.2c0.3-0.1,0.6-0.3,0.7-0.6
			c-0.1,0-0.3,0-0.4-0.1C22.1,21,22,20.9,22,20.7c0-0.2,0.2-0.1,0.3-0.2c0.4-0.1,0.9-0.2,1.3-0.4c0,0,0,0,0.1,0
			c1-0.5,1.8-1.3,2.5-2.1c0.1-0.1,0.3-0.2,0.3-0.4c-0.1,0-0.1,0-0.2,0c-0.6,0-1.2-0.1-1.8-0.2c-0.8-0.2-1.7-0.2-2.5-0.1
			c-0.9,0.1-1.7,0.4-2.4,0.8c-0.1,0.1-0.2,0.1-0.3,0c0,0,0-0.1,0-0.1c0.1-0.3,0.2-0.6,0.4-0.8c0,0,0,0,0,0c0,0,0,0,0,0c0,0,0,0,0,0
			C19.7,17.1,19.6,17.2,19.4,17.3C19.5,17.2,19.4,17.2,19.4,17.3z M15.3,26.6L15.3,26.6c-0.1-0.2-0.3-0.4-0.5-0.5
			c-0.3-0.2-0.6-0.3-0.9-0.3c-0.4,0-0.8,0.4-0.8,0.9l0,0c0,0,0,0,0,0c-0.1,0.2,0,0.3,0.1,0.4c0.2,0.1,0.4,0.1,0.7,0.1
			c0.3,0,0.4-0.2,0.2-0.4c-0.1-0.1-0.2-0.2-0.2-0.3c0,0,0.1,0,0.1,0c0.1,0.1,0.2,0.3,0.3,0.5c0.1-0.2,0.2-0.4,0.4-0.4l0,0
			c0,0.2-0.2,0.2-0.2,0.4c-0.1,0.1,0,0.3,0.1,0.3C15,27.3,15.4,27,15.3,26.6C15.3,26.6,15.3,26.6,15.3,26.6z M15,29.2
			c-0.2,0-0.3,0-0.5,0c0.1,0.2,0.1,0.4,0.2,0.6c0.1,0.3,0.1,0.5,0.3,0.8c0,0,0.1,0.2,0.1,0c0,0,0,0,0,0c0.2-0.4,0.3-0.9,0.4-1.3
			c0-0.1,0-0.1-0.1-0.1C15.3,29.2,15.2,29.2,15,29.2z M11,29.3c0.1-0.1,0.1-0.3,0.1-0.5c0-0.2,0-0.2-0.2-0.2c-0.2,0-0.3,0-0.5-0.1
			c-0.1,0-0.1,0-0.1,0.1c0,0.1,0,0.1,0,0.2c0,0.3,0,0.6,0.1,0.9c0,0.1,0,0.2,0.1,0.2c0.1,0,0.2-0.1,0.2-0.1c0.1-0.1,0.1-0.2,0.2-0.3
			C11,29.4,11,29.4,11,29.3C11,29.3,11,29.3,11,29.3z M11.2,29.1c-0.1,0.4-0.1,0.8-0.1,1.2c0.3-0.2,0.4-0.4,0.6-0.6
			c0.2-0.2,0.3-0.4,0.5-0.6c0-0.1,0-0.1-0.1-0.1c-0.3-0.1-0.5-0.1-0.8-0.2c-0.1,0-0.1,0-0.1,0.1C11.3,28.8,11.2,28.9,11.2,29.1z
			 M12.3,31.6C12.3,31.6,12.4,31.6,12.3,31.6c0.6,0.2,1.1,0.2,1.7,0.3c0.1,0,0.1,0,0.1-0.1c-0.1-0.2-0.2-0.4-0.4-0.6
			c-0.1-0.1-0.2-0.2-0.3-0.2c-0.7-0.4-1.5-0.2-2.1,0.4C11.6,31.4,12,31.6,12.3,31.6L12.3,31.6z M16.1,26c0,0.1,0.1,0.1,0.2,0.2
			c1,0.7,2.4,0.6,3.3-0.3c0.8-0.8,0.9-2.1,0.5-2.9c-0.1-0.2-0.2-0.3-0.3-0.5c-0.8-1.1-2.4-1.4-3.4-0.6c-1,0.6-1.3,1.6-1.1,2.7
			C15.3,25.1,15.6,25.6,16.1,26C16.1,26,16.1,26,16.1,26C16.1,26,16.1,26,16.1,26z M7.5,25.5c0,0.1,0,0.2,0.1,0.2
			c0.6,0.7,1.3,1.1,2.2,1.1c1.3,0.1,2.5-0.7,2.9-1.9c0.3-0.7,0.3-1.5,0-2.2c0,0,0-0.1,0-0.1c-0.5-1.3-2-2.1-3.4-1.9
			c-1.5,0.3-2.6,1.7-2.4,3.1C7,24.5,7.1,25,7.5,25.5z M11,29.7c-0.1,0.1-0.1,0.1-0.1,0.1c-0.3,0.3-0.5,0.2-0.6-0.2
			c0-0.1,0-0.1,0-0.2c-0.1-0.3,0-0.6,0-0.8c0-0.2,0-0.2-0.2-0.2c-0.3,0-0.7,0-1,0.1c-0.4,0.1-0.5,0.4-0.4,0.8
			c0.2,0.4,0.4,0.7,0.8,0.9c0.5,0.4,1,0.6,1.6,0.9c0.1,0,0.2,0,0.3,0c0.4-0.4,0.9-0.6,1.5-0.5c0.7,0,1.3,0.4,1.5,1.1
			c0,0.1,0,0.1,0.1,0.1c0.2,0,0.3,0,0.5,0c0.6-0.1,1.2-0.2,1.7-0.5c0.5-0.2,1-0.6,1.4-1c0.3-0.3,0.6-0.5,0.7-0.9
			c0.2-0.3,0.1-0.5-0.2-0.7c-0.3-0.2-0.6-0.2-0.9-0.2c-0.1,0-0.2,0-0.2,0.2c-0.1,0.3-0.1,0.6-0.2,0.8c-0.1,0.2-0.2,0.2-0.3,0
			c-0.1-0.1-0.2-0.3-0.3-0.4c-0.2-0.4-0.2-0.4-0.7-0.3c-0.1,0-0.2,0.1-0.2,0.2c-0.1,0.4-0.1,0.9-0.3,1.3c-0.1,0.1-0.1,0.3-0.3,0.3
			c-0.2,0-0.2-0.1-0.3-0.3c0,0,0-0.1-0.1-0.1c-0.1-0.3-0.2-0.7-0.3-1c0-0.1-0.2-0.2-0.3-0.1c-0.2,0.2-0.5,0.2-0.7,0.1
			c-0.3-0.1-0.6-0.2-0.9-0.3c-0.1,0-0.1-0.1-0.2,0c-0.1,0.3-0.3,0.5-0.5,0.7c-0.2,0.2-0.4,0.4-0.6,0.6c-0.1,0.1-0.2,0.1-0.2-0.1
			C11,30.1,11,29.9,11,29.7z M5,27.1L5,27.1L5,27.1L5,27.1z"/>
		<path class="st1" d="M12.8,26.5c0-0.2-0.1-0.4-0.3-0.5c-0.1,0-0.2,0-0.3,0c0,0,0,0,0,0c0.3-0.4,0.5-0.7,0.7-1.2
			c0.6-1.8-0.6-3.8-2.5-4.1c-0.3-0.1-0.7,0-1,0c0,0,0,0,0,0c0-0.2-0.1-0.3-0.1-0.5c0.1-0.3,0.2-0.4,0.4-0.6c0.2-0.1,0.4-0.3,0.6-0.4
			c0.2-0.2,0.4-0.5,0.4-0.8c0.3,0.2,0.7,0.1,1.1,0.3c-0.1-0.6-0.4-1.1-0.9-1.5c0,0.1,0,0.2,0,0.3c-0.1-0.1-0.1-0.1-0.2-0.1
			c-0.3-0.2-0.5-0.5-0.7-0.8c-0.1-0.2,0-0.4,0.1-0.6c0.2,0.2,0.3,0.3,0.5,0.5c0.1,0.1,0.2,0.1,0.3,0c0.1,0.1,0.2,0,0.2,0
			c0.1-0.1,0.2-0.1,0.3,0c0.1,0.1,0.1,0.1,0.2,0c0.2-0.3,0.2-0.3,0.5-0.1c0.2,0.1,0.4,0.3,0.6,0.4c0,0,0,0.1,0.1,0.1c0,0,0,0,0,0
			c0,0,0,0,0,0c0,0,0-0.1,0-0.1c-0.2-0.3-0.4-0.6-0.7-0.9c0,0-0.1-0.1-0.1,0c-0.1,0.2-0.1,0-0.2,0c-0.1-0.1-0.2-0.1-0.3-0.2
			c-0.1-0.1-0.1,0-0.2,0.1c0,0.1,0,0.2,0,0.3c0,0,0,0,0,0c0,0,0,0-0.1-0.1c-0.5-0.5-0.6-1.1-0.5-1.7c0-0.2,0.1-0.5,0-0.7
			c0,0,0-0.1,0-0.1l0,0c0.3,0.3,0.7,0.6,1.1,0.8c0.1,0.1,0.2,0.1,0.3,0.1c0.2,0.1,0.4,0.1,0.5,0c0.2-0.1,0.2-0.4,0.2-0.6
			c-0.1-0.4-0.2-0.7-0.3-1.1c-0.5-1.2-1-2.4-1.5-3.6c-0.6-1.4-1-2.9-1-4.5c0-0.1,0-0.3,0.1-0.4c0.1,0,0.2,0.2,0.3,0.3
			c0.1,0.2,0.2,0.3,0.3,0.5c0.1,0.1,0.1,0.1,0.2,0.1c0.1,0,0.1-0.1,0.1-0.2c0-0.4-0.1-0.8-0.2-1.3c-0.1-0.6,0-1.3,0.2-1.9
			c0-0.1,0.1-0.2,0.1-0.2c0,0.1,0,0.2,0,0.3c0,0.2,0,0.3,0.2,0.4c0.5,0.5,0.7,1.1,0.9,1.8c0.1,0.7,0.2,1.5,0.2,2.2
			c0,0.2,0.1,0.5,0,0.7c0,0,0,0,0,0.1c0,0.4,0,0.7,0.2,1.1c0.2,0.5,0.7,1,0.8,1.7c0.2-0.2,0.2-0.4,0.3-0.5c0.1,0.2,0.1,0.3,0.2,0.4
			c0-0.2,0.1-0.4,0.2-0.6c0.1-0.2,0.2-0.5,0.2-0.7c0-0.2,0.1-0.5-0.1-0.7c0-0.1,0-0.3,0-0.4c0.2,0,0.2,0.1,0.3,0.3
			c0.3,0.5,0.5,1,0.5,1.6c0.1,0.7,0.1,1.4,0.2,2.1c0,0.9,0.1,1.7,0.5,2.5c0.1,0.1,0.2,0.3,0.2,0.4c0.1,0.1,0.2,0.1,0.3,0.1
			c0.2-0.2,0.4-0.4,0.5-0.6c0-0.1,0.1-0.2,0.1-0.3c0.2,0.4,0.3,0.7,0.4,1.1c0,0.2,0.1,0.4,0.1,0.6c-0.2,0.3-0.2,0.6-0.3,0.9
			c-0.1,0.2,0,0.4-0.1,0.6c-0.2-0.2-0.3-0.4-0.5-0.5c0.1,0.2,0,0.3-0.1,0.4c0,0-0.1,0.1-0.1,0.1c-0.1,0.2-0.2,0.4-0.3,0.6
			c-0.1,0.2-0.2,0.4-0.2,0.7c0.3-0.2,0.6-0.4,0.8-0.6c0.1-0.1,0.1-0.1,0.2,0.1c0.1,0.2,0.1,0.5,0,0.7c0,0,0,0.1,0,0.1
			c0,0,0.1,0,0.1,0c0.1-0.1,0.2-0.2,0.3-0.2c0,0,0,0.1,0,0.1c0,0.1,0,0.2,0.1,0.2c0.1,0,0.1,0,0.2-0.1c0.2-0.2,0.5-0.5,0.7-0.8
			c0,0,0.1-0.1,0.1-0.1c0.1,0.1,0.2,0.3,0.2,0.4c-0.2,0.5-0.5,0.8-0.9,1.2c0.2,0,0.2,0.1,0.1,0.2c-0.2,0.3-0.4,0.6-0.6,0.9
			c0.1,0,0.2-0.1,0.2-0.1c0.1,0,0.2-0.1,0.3-0.1c-0.1,0.4,0.2,0.7,0.4,0.9c0.1,0.1,0.3,0.2,0.4,0.3c0.2,0.2,0.4,0.5,0.3,0.8
			c0,0.1-0.1,0.1-0.2,0.1c-0.4,0-0.8,0-1.2,0.1c-0.5,0.2-0.9,0.5-1.2,0.9c-0.1,0.1-0.2,0.3-0.3,0.4c-0.2,0-0.3,0.2-0.4,0.3
			c-0.5,0.6-0.8,1.2-0.5,2c0.1,0.2,0.1,0.4,0,0.7c-0.2,0-0.3-0.1-0.5-0.1c-0.4,0-0.7,0.2-0.9,0.5C13,26.3,12.9,26.4,12.8,26.5
			C12.9,26.6,12.8,26.5,12.8,26.5z"/>
		<path class="st2" d="M12.8,26.5C12.8,26.5,12.9,26.6,12.8,26.5c0,0.5,0.1,0.7,0.6,0.8c0.2,0,0.3,0.1,0.5,0c0.1,0,0.2,0,0.2,0.1
			c0.2,0.4,0.2,0.8,0.2,1.2c0,0,0,0,0,0.1c0,0,0,0,0,0.1C13.9,29,13.6,29,13.3,29c-0.1,0-0.2-0.1-0.2,0c-0.2-0.1-0.3-0.1-0.5-0.2
			c0,0,0-0.1-0.1,0c0,0-0.1,0-0.1,0c-0.7-0.3-1.3-0.6-2.1-0.7c-0.5-0.1-1.1,0-1.5,0.4c-0.1,0.1-0.1,0.1-0.2,0.2
			c-0.4,0.4-0.2,0.8,0,1.1c0.4,0.5,0.9,0.9,1.4,1.2c1.5,0.8,3.1,1.2,4.8,1.1c0.9,0,1.8-0.4,2.5-1c0.4-0.3,0.8-0.7,1.1-1.1
			c0.1-0.1,0.1-0.1,0.1-0.2c0.3-0.4,0.2-0.7-0.3-1c-0.1,0-0.1-0.1-0.2-0.1c-0.1-0.2-0.3-0.2-0.4-0.3c-0.3-0.1-0.5-0.1-0.8-0.1
			c0.2-0.2,0.1-0.4,0-0.4c-0.1,0-0.2,0-0.2,0.1c-0.1,0.2,0,0.2,0.2,0.3c-0.5,0.1-1.1,0.2-1.6,0.3c-0.3,0-0.6,0.1-0.9-0.2
			c0-0.4-0.1-0.8-0.3-1.1c-0.1-0.1,0.1-0.2,0.1-0.3c0,0.1,0.1,0.2,0.2,0.3c0.1,0.1,0.2,0.1,0.3,0.1c0.1,0,0.3,0,0.4-0.1
			c0.3-0.1,0.5-0.4,0.3-0.7c-0.1-0.3,0-0.4,0.3-0.4c0.2,0,0.3,0,0.4,0.1c0.9,0.6,2.1,0.7,3,0.2c0.1,0,0.1-0.1,0.2,0
			c0.1,0.4,0.5,0.6,0.9,0.7c0.1,0,0.2,0,0.3,0c-0.2,0.3-0.4,0.5-0.5,0.8c0,0.1-0.1,0.1,0,0.2c0.1,0,0.1-0.1,0.1-0.1
			c0.1-0.3,0.3-0.5,0.5-0.8c0.1-0.1,0.1-0.1,0.2-0.1c0.2,0,0.5-0.1,0.7,0c-0.7,0.2-1.2,0.6-1.4,1.3c-0.1,0.3-0.1,0.7-0.5,0.8
			c0.2,0.1,0.3,0.1,0.5,0c0.2-0.1,0.4-0.2,0.5-0.3c0.2-0.2,0.5-0.3,0.8-0.2c0.2,0.1,0.5,0.2,0.8,0.3c0.3,0.1,0.3,0.3,0.1,0.6
			c0,0,0,0,0,0l0,0c-0.1,0-0.1,0-0.2,0c-0.3,0.1-0.7,0.2-1,0.1c-0.2-0.1-0.3-0.2-0.5-0.3c0,0-0.1-0.1-0.2,0c-0.1,0.1,0,0.1,0.1,0.2
			c0.1,0.1,0.2,0.1,0.2,0.2c-0.3,0-0.7,0-1,0c-0.2,0-0.2,0-0.1,0.2c0.3,0.4,0.7,0.7,1.2,0.8c0.1,0.2,0.3,0.4,0.5,0.5
			c0.2,0.2,0.4,0.3,0.6,0.6c-0.2,0-0.4-0.1-0.5-0.2c-0.3-0.2-0.6-0.4-0.9-0.7c0,0-0.1-0.1-0.2-0.1c-0.1,0.1,0,0.1,0.1,0.2
			c0.5,0.4,1,0.8,1.6,1c0.1,0,0.1,0.1,0.1,0.2c-0.8,0.3-1.7,0.3-2.5,0.2c-0.3,0-0.5-0.1-0.8-0.2c0,0,0,0,0,0c0,0,0,0,0,0
			c0,0,0,0,0,0c0,0,0,0.1,0,0.1c0,0.2,0.2,0.4,0,0.7c0,0,0,0.1,0,0.1c0.1,0.4,0.1,0.9,0.1,1.3c-0.1,0.7-0.7,1-1.3,0.8
			c-0.5-0.2-0.9-0.7-1.2-1.1c-0.1-0.1-0.2-0.3-0.3-0.4c0,0.2-0.1,0.4-0.1,0.5c-0.1,0-0.1-0.1-0.1-0.2c-0.2,0.4-0.4,0.8-0.7,1.1
			c-0.5,0.1-1,0.4-1.5,0.7c-0.2,0.1-0.4,0.2-0.6,0.2c-0.1-0.3-0.3-0.6-0.3-0.9c-0.1,0.1-0.2,0.2-0.2,0.3c0,0,0,0.1-0.1,0.1
			c-0.1,0-0.1-0.1-0.1-0.1c-0.1-0.2-0.2-0.4-0.2-0.6c-0.2,0.2-0.4,0.4-0.5,0.7c-0.2-0.2-0.3-0.5-0.6-0.7c0.1-0.2,0.3-0.4,0.3-0.7
			c0-0.1,0-0.1-0.1-0.1c-0.2,0.1-0.4,0.2-0.5-0.1c0-0.1-0.1,0-0.1,0c-0.1,0-0.1,0.1-0.2,0.1c-0.1-0.1,0-0.2,0-0.3
			c0-0.2,0.1-0.4,0.1-0.6C9.7,34,9,34.4,8,34.5c-0.3-0.2-0.4-0.4-0.5-0.7c-0.1-0.1-0.1-0.3-0.2-0.4c0.3,0,0.5-0.2,0.6-0.4
			c0.2-0.3,0.4-0.6,0.4-1c-0.2,0.2-0.5-0.1-0.8,0.1c0,0-0.1,0-0.1-0.1c-0.1-0.1-0.2-0.1-0.3-0.1c-0.3,0-0.6-0.1-0.8-0.3
			c0.2,0,0.4,0,0.6,0c0.4-0.1,0.7-0.5,0.5-0.8c0-0.1-0.1-0.2-0.2-0.1c0,0.2-0.2,0.4-0.4,0.4c-0.1,0.1-0.3,0.1-0.4,0.1
			c-0.5,0-0.9-0.1-1.4-0.3c-0.3-0.1-0.5-0.2-0.8-0.2c0-0.1,0.1-0.2,0.1-0.2c0.2-0.1,0.3-0.2,0.4-0.3C5.4,30.1,6,30,6.6,30
			C6.8,30,7,30,7.2,29.8c-0.2,0-0.4,0-0.5-0.1c0.1-0.1,0.2-0.1,0.2-0.2c0,0,0.1,0,0-0.1c0,0-0.1-0.1-0.1,0c-0.1,0.1-0.2,0.1-0.3,0.2
			c-0.1,0-0.1,0-0.2,0c-0.3,0-0.3-0.1-0.4-0.3c0-0.1-0.1-0.1-0.1-0.1c-0.4,0.1-0.8,0-1.2,0c-0.2,0-0.3-0.2-0.5-0.3
			c-0.1,0-0.1-0.1,0-0.1c0-0.2,0.1-0.3,0.4-0.4c0.2-0.1,0.5-0.1,0.6-0.3c0.2,0,0.5,0,0.7,0c0.3,0.2,0.7,0.3,1.1,0.4c0,0,0.1,0,0.1,0
			c0.1,0,0.1,0,0.1-0.1c0-0.1-0.1-0.1-0.1-0.1c-0.1-0.1-0.2-0.1-0.3-0.2c-0.1,0-0.2-0.1-0.2-0.2c0-0.1,0.1,0,0.2-0.1
			c-0.7-0.2-1.2-0.5-1.7-1c0,0,0-0.1,0-0.1c0-0.5,0-0.5,0.4-0.4c0.7,0.3,1.3,0,1.9-0.4c0.1-0.1,0.2-0.1,0.3,0c1,1.3,2.9,1.5,4.3,0.6
			c0.1-0.1,0.3-0.2,0.5-0.2c0.2,0,0.4,0,0.4,0.2C12.7,26.4,12.7,26.5,12.8,26.5z M11.9,32.4c-0.1,0-0.2,0-0.3-0.1
			c-0.6-0.2-1.2-0.4-1.8-0.7c0.1,0.3,0.3,0.5,0.6,0.7c0.2,0.1,0.5,0.2,0.8,0.3c0.4,0.1,0.7,0.3,0.9,0.6c-0.1,0.4-0.1,0.7,0,1.1
			c0.1,0.3,0.2,0.4,0.5,0.3c0,0,0,0.1,0.1,0.1c0.2,0.3,0.2,0.3,0.5,0.1c0,0,0.1,0,0.1,0c0.1,0.1,0.2,0.1,0.4,0.1
			c0,0.1,0.1,0.2,0.2,0.2c0.1,0,0.1-0.1,0.2-0.1c0.1-0.1,0.1-0.2,0.2-0.3c0,0.2,0.2,0.1,0.3,0.2c0,0.1,0.1,0.1,0.2,0
			c0.1,0,0.1-0.1,0.1-0.2c0.2-0.5,0.5-0.8,0.9-1.1c0.2-0.1,0.4-0.3,0.5-0.5c0.1-0.1,0.1-0.2,0.1-0.3c0-0.1-0.1,0-0.2,0
			c0-0.1-0.1-0.1-0.1-0.1c-0.1-0.1-0.2,0-0.2,0c-0.9,0.2-1.8,0.2-2.7,0.1C12.5,32.5,12.2,32.4,11.9,32.4z M11.9,26.9
			c-0.1,0-0.2,0.1-0.2,0.2c0,0.1,0.1,0.2,0.2,0.2c0.1,0,0.2-0.1,0.2-0.2C12.1,27,12,26.9,11.9,26.9z M10.7,27.7
			c0.2,0,0.2-0.1,0.2-0.2c0-0.1-0.1-0.2-0.2-0.2c-0.1,0-0.2,0.1-0.2,0.2C10.5,27.6,10.6,27.7,10.7,27.7z M17,27.3
			c0-0.1-0.1-0.2-0.2-0.2c-0.1,0-0.2,0.1-0.2,0.2c0,0.1,0.1,0.2,0.2,0.2C16.9,27.5,17,27.4,17,27.3z M11.7,27.9c0,0.1,0,0.2,0.2,0.2
			c0.1,0,0.2-0.1,0.2-0.2c0-0.1,0-0.2-0.2-0.2C11.8,27.7,11.7,27.8,11.7,27.9z M17.8,27.4c-0.1,0-0.2,0.1-0.2,0.2
			c0,0.1,0.1,0.2,0.2,0.2c0.1,0,0.2-0.1,0.2-0.2C18,27.5,18,27.4,17.8,27.4z"/>
		<path class="st3" d="M7.5,25.5c-0.3-0.5-0.5-1-0.5-1.5c-0.2-1.5,1-2.9,2.4-3.1c1.4-0.3,2.9,0.6,3.4,1.9c0,0,0,0.1,0,0.1
			c0,0.1,0,0.2,0,0.3c-0.1,1-0.6,1.9-1.4,2.6c-1,0.8-2.4,1-3.6,0.1C7.7,25.6,7.6,25.5,7.5,25.5z M9.4,23.6c0.1-0.1,0.1-0.2,0.1-0.2
			c0-0.1,0-0.1,0-0.2c-0.2-0.2-0.3,0.1-0.4,0c0,0-0.1,0.1-0.1,0.1c0,0.2,0,0.2-0.2,0.2c-0.1,0-0.2,0-0.1,0.1c0,0.1-0.1,0.3,0.2,0.3
			c0.1,0.3,0.2,0.1,0.4,0c0,0,0.1,0,0.1,0c0,0,0.1,0,0.1,0c0-0.2,0.2-0.2,0.3-0.3c0.1,0,0.1-0.1,0.1-0.2c0-0.1-0.1-0.1-0.2-0.1
			C9.6,23.5,9.5,23.5,9.4,23.6z"/>
		<path class="st1" d="M7.4,21.8c-0.1,0.1-0.2,0.2-0.3,0.4c-0.3,0.1-0.5,0.2-0.8,0c0,0.1,0.1,0.2,0.1,0.3c-0.4-0.1-0.7-0.4-0.9-0.8
			c0.2,0,0.4,0,0.6-0.2c0,0,0.1,0,0.1,0c0.1,0,0.3,0,0.3-0.1c0.1-0.1,0-0.2-0.1-0.3c-0.1-0.2-0.3-0.3-0.5-0.4
			c-0.1-0.1-0.2-0.2-0.4-0.3c0,0-0.1-0.1-0.1-0.1c0-0.1,0.1,0,0.1,0c0.1,0,0.2,0.1,0.3,0c-0.3-0.4-0.7-0.7-1.1-1
			c-0.3-0.2-0.6-0.4-0.9-0.6c0-0.1-0.1-0.1-0.1-0.2c0.2,0,0.3,0.2,0.5,0.2c0.1,0.1,0.2,0.1,0.3-0.1c0.2,0.1,0.4,0.2,0.6,0.2
			c0.1,0,0.1,0,0.2,0c0,0,0-0.1,0-0.1C5.2,18.5,5,18.2,4.8,18c-0.1-0.1-0.1-0.1-0.1-0.2c0-0.1,0.1-0.1,0.2-0.1c0.2,0,0.5,0,0.7,0
			c-0.2-0.1-0.4-0.2-0.6-0.3c-0.3-0.2-0.6-0.3-0.8-0.6c-0.1-0.1-0.1-0.2,0.1-0.3c0,0,0.1,0,0.1,0c0,0-0.1,0-0.1-0.1
			c-0.8-0.3-1.6-0.7-2.3-1.1c-0.2-0.1-0.3-0.2-0.5-0.3C1.5,15,1.4,15,1.4,14.9c0.3,0.1,0.6,0.2,0.8,0.2c0.6,0.1,1.1,0.1,1.7,0.1
			c1.2,0.1,2.3,0.4,3.4,0.9c0.4,0.2,0.8,0.4,1.2,0.7c0.2,0.1,0.2,0.1,0.3-0.1c0.1-0.2,0-0.4-0.1-0.7c0,0,0,0,0,0
			c0.3,0,0.5,0.1,0.7,0.3c0,0.1,0.1,0.1,0.1,0.2c0,0.2,0.2,0.4-0.1,0.6c-0.1,0,0,0.1,0,0.1c0.1,0.2,0.1,0.3,0,0.5
			c-0.1,0.1-0.1,0.2-0.1,0.4c0,0.1,0,0.1-0.1,0.1c-0.1,0-0.1,0-0.2,0c-0.1,0-0.3-0.1-0.5-0.1c0.1,0.2,0.2,0.4,0.4,0.5
			c0.1,0.1,0.1,0.2,0.1,0.2c-0.2,0.2-0.1,0.3,0,0.5c0,0.1,0,0.2,0,0.2c0,0.3-0.2,0.5-0.2,0.7c0,0.2-0.1,0.2-0.2,0.2
			c-0.3-0.1-0.6-0.2-0.9-0.2c0,0,0,0,0,0c0,0,0,0,0,0c0,0,0,0,0,0c0,0,0,0,0,0.1C8,20.5,8,20.7,7.9,20.9C7.8,21.1,7.7,21,7.6,21
			c-0.1,0-0.2,0.1-0.2,0.2C7.4,21.5,7.4,21.6,7.4,21.8z M6,17.4L6,17.4c0,0.1,0,0.2,0.1,0.2c0.1,0.2,0.3,0.3,0.4,0.5
			c-0.4-0.1-0.7,0-1.1,0.1c0.1,0.1,0.2,0.1,0.3,0.2c0.2,0.2,0.4,0.5,0.4,0.8c0,0.2,0,0.5,0,0.7C6.2,20.5,6.5,21,7,21.3
			c0,0.1-0.1,0.1,0,0.2c0.1,0,0.1-0.1,0.1-0.1c0.1-0.2,0-0.4-0.1-0.6c0.1,0,0.2,0,0.4,0c0.2,0,0.2,0,0.2-0.2c0-0.2-0.1-0.4-0.1-0.7
			c0.3,0.1,0.6,0.2,0.9,0.3c0.3,0.1,0.3,0.1,0.2-0.2c-0.1-0.9-0.6-1.6-1.4-2c-0.3-0.2-0.7-0.3-1-0.6c-0.2-0.2-0.4-0.4-0.4-0.8
			c0-0.1,0-0.1-0.1-0.1c-0.1,0-0.1,0.1-0.1,0.1C5.7,16.9,5.8,17.1,6,17.4C6,17.3,6,17.3,6,17.4z"/>
		<path class="st3" d="M16,26c-0.5-0.4-0.8-0.9-0.9-1.4c-0.2-1.1,0.2-2.1,1.1-2.7c1.1-0.7,2.6-0.4,3.4,0.6c0.1,0.1,0.2,0.3,0.3,0.5
			c0,0.3,0,0.6-0.1,0.8c-0.3,1.4-1.4,2.4-2.9,2.4C16.7,26.2,16.4,26.1,16,26C16.1,26,16.1,26,16,26C16.1,26,16.1,26,16,26z
			 M18.2,24.6c0,0.1-0.1,0.1-0.1,0.2c0.1,0.2,0.4,0,0.4,0.3c0,0,0.1,0,0.1,0c0.1-0.1,0.3-0.2,0.3-0.3c0-0.1,0-0.1,0.1-0.2
			c0.1-0.1,0.1-0.2,0-0.2c-0.1,0-0.1-0.1-0.1-0.2c0-0.1,0-0.1-0.1-0.1c-0.1,0-0.1,0-0.2,0.1c0,0.2-0.2,0.2-0.4,0.2
			c-0.1,0-0.1,0-0.2,0c-0.1,0-0.1,0-0.1,0.1c0,0.1,0,0.1,0.1,0.1C18.1,24.5,18.1,24.6,18.2,24.6z"/>
		<path class="st1" d="M18.8,17.5c0.2-0.1,0.4-0.3,0.6-0.3c-0.2,0.2-0.4,0.4-0.5,0.7c-0.1,0.2-0.1,0.3-0.1,0.5
			c0.2-0.1,0.3-0.2,0.5-0.4c0.1,0.1,0.2,0.1,0.3,0c0.8-0.4,1.6-0.7,2.4-0.8c0.8-0.1,1.7-0.1,2.5,0.1c0.6,0.1,1.2,0.2,1.8,0.2
			c-0.2,0.1-0.3,0.2-0.5,0.4c-0.6,0.4-1.1,0.8-1.9,0.9c-0.1,0-0.3,0.1-0.4,0.2c0.1,0,0.2,0,0.3,0c0.1,0,0.1,0.1,0,0.2
			c-0.1,0.1-0.3,0.2-0.5,0.3c-0.3,0.2-0.6,0.2-0.9,0.4c0.4,0.1,0.7,0.1,1,0.2c-0.4,0.2-0.8,0.3-1.3,0.4c-0.1,0-0.3,0-0.3,0.2
			c0,0.2,0.1,0.2,0.3,0.3c0.1,0.1,0.2,0.1,0.4,0.1c-0.2,0.3-0.4,0.4-0.7,0.6c-0.2,0-0.4,0.1-0.7,0.1c-0.2,0-0.3,0.1-0.4,0.2
			c-0.1,0.1-0.2,0.2-0.3,0.2c-0.1,0-0.2,0-0.4,0.1c0.2,0.2,0.4,0.4,0.6,0.5c0.2,0.3,0.4,0.4,0.7,0.5c0,0,0.1,0,0.1,0c0,0,0,0-0.1,0
			c-0.4,0-0.8,0-1.1-0.1c-0.2-0.6-0.6-1-1.1-1.4c0-0.1-0.1-0.2-0.2-0.4c-0.1-0.1-0.2-0.2-0.1-0.3c0.1-0.2,0-0.3-0.1-0.3
			c-0.2-0.1-0.2-0.2-0.2-0.4c0-0.2,0-0.3,0-0.4c0-0.1-0.1-0.2-0.1-0.2c0.1-0.2-0.1-0.2-0.2-0.2c-0.3,0-0.5-0.2-0.3-0.5
			c0.1-0.1,0.1-0.2,0.2-0.3C18.5,18.3,18.7,18,18.8,17.5z M22.6,18.8c0.1-0.1,0.2-0.2,0.3-0.3c0,0,0.1-0.1,0-0.2
			c-0.1-0.1-0.1,0-0.1,0.1c-0.1,0.2-0.3,0.3-0.5,0.3c-0.2,0.1-0.4,0-0.7,0c-0.7,0-1.3,0.3-1.7,0.9c0,0.1-0.1,0.1-0.1,0.1
			c-0.3,0.1-0.4,0.3-0.3,0.5c0,0.2,0.2,0.4,0.5,0.4c0.1,0,0.2,0,0.4,0c-0.1,0.1-0.3,0.2-0.4,0.4c-0.1,0.1-0.1,0.3,0.1,0.4
			c0.2,0.1,0.5,0.1,0.5,0c0.3,0,0.5-0.1,0.7-0.2c0.1-0.1,0.1-0.1,0-0.2c-0.1-0.1-0.2-0.1-0.2-0.2c-0.1-0.2-0.1-0.2,0.1-0.2
			c0.5,0,1.1-0.5,1.3-0.9c-0.3-0.1-0.3-0.2-0.1-0.4C22.5,19.2,22.6,19.1,22.6,18.8z"/>
		<path class="st4" d="M11,29.7c0,0.2,0,0.4,0,0.6c0.1,0.2,0.1,0.2,0.2,0.1c0.2-0.2,0.4-0.4,0.6-0.6c0.2-0.2,0.4-0.4,0.5-0.7
			c0-0.1,0.1-0.1,0.2,0c0.3,0.1,0.6,0.2,0.9,0.3c0.2,0.1,0.5,0.1,0.7-0.1c0.1-0.1,0.3,0,0.3,0.1c0.1,0.3,0.2,0.7,0.3,1
			c0,0,0,0.1,0.1,0.1c0.1,0.1,0.1,0.3,0.3,0.3c0.1,0,0.2-0.2,0.3-0.3c0.2-0.4,0.2-0.8,0.3-1.3c0-0.1,0.1-0.2,0.2-0.2
			c0.4-0.1,0.4-0.1,0.7,0.3c0.1,0.2,0.1,0.3,0.3,0.4c0.1,0.1,0.2,0.1,0.3,0c0.2-0.3,0.2-0.5,0.2-0.8c0-0.1,0.1-0.2,0.2-0.2
			c0.3,0,0.6,0,0.9,0.2c0.3,0.2,0.3,0.4,0.2,0.7c-0.2,0.3-0.5,0.6-0.7,0.9c-0.4,0.4-0.9,0.7-1.4,1c-0.6,0.3-1.1,0.4-1.7,0.5
			c-0.1,0-0.3,0-0.5,0c-0.1,0-0.1-0.1-0.1-0.1c-0.2-0.7-0.8-1.1-1.5-1.1c-0.5,0-1,0.2-1.5,0.5c-0.1,0.1-0.2,0.1-0.3,0
			c-0.6-0.2-1.1-0.5-1.6-0.9c-0.3-0.3-0.6-0.6-0.8-0.9c-0.2-0.4,0-0.7,0.4-0.8c0.3-0.1,0.7-0.1,1-0.1c0.2,0,0.2,0.1,0.2,0.2
			c0,0.3,0,0.6,0,0.8c0,0.1,0,0.1,0,0.2c0.1,0.4,0.3,0.4,0.6,0.2C10.9,29.8,10.9,29.7,11,29.7z"/>
		<path class="st5" d="M15.1,35.3c0.3-0.3,0.5-0.7,0.7-1.1c0.1,0,0.1,0.1,0.1,0.2c0-0.2,0.1-0.3,0.1-0.5c0.1,0.2,0.2,0.3,0.3,0.4
			c0.3,0.5,0.6,0.9,1.2,1.1c0.6,0.3,1.2-0.1,1.3-0.8c0-0.4,0-0.9-0.1-1.3c0,0,0-0.1,0-0.1c0.2-0.2,0-0.4,0-0.7c0,0,0-0.1,0-0.1l0,0
			c0.3,0,0.5,0.1,0.8,0.2c0.9,0.1,1.7,0.1,2.5-0.2c0,0.2-0.2,0.2-0.3,0.3c-0.4,0.2-0.8,0.3-1.1,0.4c-0.2,0.1-0.4,0.1-0.6,0.2
			c-0.5,0.2-0.8,0.6-1,1.1c-0.1,0.3-0.1,0.6-0.3,0.9c-0.2,0.4-0.6,0.7-1.1,0.6c-0.4,0-0.8-0.2-1.2-0.3C16,35.4,15.6,35.3,15.1,35.3z
			"/>
		<path class="st6" d="M7.5,25.5c0.1,0,0.2,0.2,0.3,0.2c1.2,0.9,2.6,0.7,3.6-0.1c0.8-0.6,1.2-1.5,1.4-2.6c0-0.1,0-0.2,0-0.3
			c0.3,0.7,0.3,1.5,0,2.2c-0.5,1.2-1.7,1.9-2.9,1.9c-0.9,0-1.7-0.4-2.2-1.1C7.5,25.6,7.4,25.6,7.5,25.5z"/>
		<path class="st7" d="M7.4,21.8c0-0.2,0-0.3,0-0.5c0-0.1,0.1-0.2,0.2-0.2c0.1,0,0.2,0,0.3-0.1C8,20.7,8,20.5,7.8,20.4
			c0,0,0,0,0-0.1l0,0c0.3,0,0.6,0.1,0.9,0.2c0.2,0,0.2,0,0.2-0.2c0-0.3,0.1-0.5,0.2-0.7c0-0.1,0-0.2,0-0.2c-0.1-0.2-0.2-0.3,0-0.5
			c0-0.1,0-0.2-0.1-0.2c-0.1-0.2-0.2-0.3-0.4-0.5c0.2,0.1,0.3,0.1,0.5,0.1c0.1,0,0.1,0,0.2,0c0.1,0,0.1,0,0.1-0.1
			c0-0.1,0-0.3,0.1-0.4c0.1-0.2,0.1-0.3,0-0.5c0,0-0.1-0.1,0-0.1c0.3-0.2,0.1-0.4,0.1-0.6c0-0.1-0.1-0.1-0.1-0.2
			c0.2,0.1,0.4,0.3,0.5,0.5c0.1,0.3,0.3,0.7,0.5,1c0.2,0.5,0.1,0.9-0.4,1.2c-0.2,0.2-0.5,0.3-0.7,0.6c-0.2,0.2-0.3,0.5-0.2,0.8
			c0,0.1,0.1,0.2,0.2,0.2c0,0,0,0,0,0C8.6,20.8,7.9,21.1,7.4,21.8C7.4,21.8,7.4,21.8,7.4,21.8z"/>
		<path class="st7" d="M18.8,17.5c-0.1,0.4-0.3,0.8-0.5,1.1c-0.1,0.1-0.1,0.2-0.2,0.3c-0.1,0.3,0,0.5,0.3,0.5c0.1,0,0.3,0,0.2,0.2
			c0,0.1,0,0.2,0.1,0.2c0.1,0.1,0.1,0.3,0,0.4c-0.1,0.2,0,0.3,0.2,0.4c0.2,0.1,0.2,0.2,0.1,0.3c-0.1,0.1,0,0.2,0.1,0.3
			c0.1,0.1,0.2,0.2,0.2,0.4c-0.3-0.2-0.5-0.3-0.9-0.4c-0.1,0-0.1,0-0.1-0.1c0.2-0.5-0.1-0.9-0.5-1.2c-0.1-0.1-0.3-0.2-0.4-0.3
			c-0.2-0.2-0.3-0.5-0.1-0.8c0.2-0.3,0.4-0.6,0.6-0.9c0.1-0.1,0.2-0.1,0.4-0.2C18.4,17.8,18.6,17.6,18.8,17.5z"/>
		<path class="st6" d="M16.1,26c0.3,0,0.6,0.1,0.9,0.1c1.5,0,2.6-1,2.9-2.4c0.1-0.3,0.1-0.5,0.1-0.8c0.4,0.8,0.3,2.1-0.5,2.9
			c-0.9,0.9-2.3,1-3.3,0.3C16.2,26.1,16.1,26.1,16.1,26z"/>
		<path class="st7" d="M1.5,15.1c0.2,0,0.3,0.2,0.5,0.3c0.7,0.4,1.5,0.8,2.3,1.1c0,0,0,0,0.1,0.1c-0.1,0-0.1,0-0.1,0
			c-0.2,0-0.2,0.1-0.1,0.3c0.2,0.2,0.5,0.4,0.8,0.6c0.2,0.1,0.4,0.2,0.6,0.3c-0.2,0-0.5,0-0.7,0c-0.1,0-0.2,0-0.2,0.1
			c0,0.1,0,0.2,0.1,0.2c0.2,0.2,0.4,0.5,0.6,0.8c0,0,0.1,0.1,0,0.1c0,0-0.1,0-0.2,0c-0.2,0-0.4-0.1-0.6-0.2c-0.2-0.6-0.6-1.1-1-1.7
			c-0.4-0.5-0.9-0.8-1.4-1.2C1.9,15.7,1.7,15.4,1.5,15.1z"/>
		<path class="st7" d="M16.8,17.3c-0.1,0.1-0.2,0.2-0.3,0.2c0,0-0.1,0-0.1,0c0,0,0-0.1,0-0.1c0-0.2,0-0.5,0-0.7
			c0-0.1-0.1-0.1-0.2-0.1c-0.3,0.2-0.5,0.4-0.8,0.6c0.1-0.3,0.2-0.5,0.2-0.7c0.1-0.2,0.2-0.4,0.3-0.6c0-0.1,0.1-0.1,0.1-0.1
			c0.2-0.1,0.3-0.2,0.1-0.4c0.2,0.1,0.3,0.3,0.5,0.5c0.1-0.2,0-0.4,0.1-0.6c0.1-0.3,0.1-0.6,0.3-0.9c0.1,0.2,0.1,0.4,0.1,0.7
			C17.1,15.8,17.1,16.6,16.8,17.3C16.8,17.3,16.8,17.3,16.8,17.3C16.8,17.3,16.8,17.3,16.8,17.3z"/>
		<path class="st7" d="M23.6,20.2c-0.3-0.1-0.7-0.1-1-0.2c0.3-0.1,0.6-0.2,0.9-0.4c0.2-0.1,0.3-0.2,0.5-0.3c0.1-0.1,0.1-0.1,0-0.2
			c-0.1,0-0.2,0-0.3,0c0.1-0.1,0.3-0.2,0.4-0.2c0.7-0.1,1.3-0.5,1.9-0.9c0.2-0.1,0.3-0.2,0.5-0.4c0,0,0.1,0,0.2,0
			c-0.1,0.2-0.2,0.3-0.3,0.4C25.5,18.9,24.7,19.6,23.6,20.2C23.6,20.2,23.6,20.2,23.6,20.2z"/>
		<path class="st7" d="M14.5,25.7c0.1-0.2,0.1-0.5,0-0.7c-0.3-0.8-0.1-1.4,0.5-2c0.1-0.1,0.2-0.3,0.4-0.3c0,0.2-0.1,0.4-0.2,0.6
			c-0.3,0.9-0.1,1.9,0.7,2.7c-0.2,0-0.4,0.1-0.5,0.3C15,26,14.7,25.8,14.5,25.7z"/>
		<path class="st5" d="M21.4,28.8c-0.3-0.1-0.6,0-0.8,0.2c-0.2,0.1-0.3,0.2-0.5,0.3c-0.1,0.1-0.3,0.1-0.5,0c0.4-0.1,0.5-0.5,0.5-0.8
			c0.2-0.7,0.6-1.2,1.4-1.3c0.2,0.1,0.3,0.2,0.1,0.4c-0.1,0.1-0.1,0.2-0.2,0.2C21.1,28.1,21.1,28.4,21.4,28.8
			C21.4,28.8,21.4,28.8,21.4,28.8z"/>
		<path class="st7" d="M12.7,16.6c-0.2-0.1-0.4-0.3-0.6-0.4c-0.3-0.1-0.3-0.1-0.5,0.1c-0.1,0.1-0.1,0.1-0.2,0
			c-0.1-0.1-0.2-0.1-0.3,0c-0.1,0.1-0.1,0.1-0.2,0c-0.2-0.5-0.4-0.9-0.5-1.4c-0.1-0.2-0.1-0.5-0.1-0.7c0-0.2,0-0.4,0.1-0.6
			c0.1-0.2,0.1-0.3,0.2-0.5c0.1,0.2,0.1,0.5,0,0.7c-0.1,0.7,0,1.3,0.5,1.7c0,0,0,0,0.1,0.1c0,0,0,0,0,0c0-0.1,0-0.2,0-0.3
			c0-0.1,0.1-0.1,0.2-0.1c0.1,0.1,0.2,0.2,0.3,0.2c0,0,0.1,0.2,0.2,0c0,0,0.1,0,0.1,0C12.3,16,12.5,16.3,12.7,16.6
			C12.7,16.6,12.7,16.6,12.7,16.6z"/>
		<path class="st7" d="M13.8,7.1c0.1,0.2,0.1,0.5,0.1,0.7c0,0.2-0.1,0.5-0.2,0.7c-0.1,0.2-0.1,0.4-0.2,0.6c-0.2-0.1-0.2-0.2-0.2-0.4
			C13.2,9,13.1,9.1,13,9.3c-0.1-0.7-0.5-1.1-0.8-1.7C12.1,7.3,12,7,12,6.6c0,0,0-0.1,0-0.1c0.1,0.1,0.1,0.3,0.1,0.4
			c0.1,0.3,0.2,0.5,0.4,0.7c0.4,0.4,1,0.2,1.1-0.3C13.8,7.3,13.8,7.2,13.8,7.1z"/>
		<path class="st5" d="M6.3,31.5c0.2,0.3,0.5,0.4,0.8,0.3c0.1,0,0.2,0,0.3,0.1c0,0.1,0.1,0.1,0.1,0.1c0.3-0.2,0.6,0.1,0.8-0.1
			c0,0.4-0.2,0.7-0.4,1c-0.2,0.2-0.3,0.4-0.6,0.4C7.2,33,7.1,32.7,7,32.5c-0.2-0.4-0.6-0.6-1-0.7c-0.1,0-0.2-0.1-0.3-0.1
			C5.9,31.5,6.1,31.5,6.3,31.5z"/>
		<path class="st7" d="M4,18.7c0.3,0.1,0.6,0.4,0.9,0.6c0.4,0.3,0.7,0.6,1.1,1c-0.1,0-0.2,0-0.3,0c0,0-0.1,0-0.1,0
			c0,0.1,0,0.1,0.1,0.1c0.1,0.1,0.2,0.2,0.4,0.3c0.2,0.1,0.3,0.2,0.5,0.4c0.1,0.1,0.2,0.2,0.1,0.3c-0.1,0.1-0.2,0.1-0.3,0.1
			c0,0-0.1,0-0.1,0c0-0.1-0.1-0.2-0.1-0.2c-0.7-0.7-1.3-1.5-1.8-2.3C4,18.9,4,18.8,4,18.7z"/>
		<path class="st5" d="M8,34.5c0.9,0,1.7-0.4,2.3-1.2c0,0.2-0.1,0.4-0.1,0.6c0,0.1-0.1,0.2,0,0.3c0.1,0.1,0.1,0,0.2-0.1
			c0,0,0.1,0,0.1,0c0.2,0.2,0.3,0.2,0.5,0.1c0.1-0.1,0.1,0,0.1,0.1c0,0.3-0.1,0.5-0.3,0.7c-0.4-0.4-0.8-0.5-1.3-0.3
			c-0.2,0-0.4,0.1-0.6,0.1C8.7,34.8,8.3,34.7,8,34.5z"/>
		<path class="st5" d="M14.4,28.4c0.3,0.2,0.6,0.2,0.9,0.2c0.5-0.1,1.1-0.2,1.6-0.3c0,0,0.1,0,0.1,0c0.3,0,0.5,0,0.8,0.1
			c0.2,0.1,0.3,0.1,0.4,0.3c-0.9-0.2-1.8,0.1-2.6,0.3c-0.4,0.1-0.9,0.1-1.3,0.1C14.4,28.8,14.4,28.6,14.4,28.4z"/>
		<path class="st7" d="M10,16.6c0.2,0.3,0.4,0.6,0.7,0.8c0,0,0.1,0.1,0.2,0.1c0-0.1,0-0.2,0-0.3c0.5,0.4,0.7,0.9,0.9,1.5
			c-0.4-0.2-0.8-0.1-1.1-0.3c0-0.6-0.4-1-0.6-1.5C10.1,16.7,10,16.6,10,16.6z"/>
		<path class="st8" d="M14,26.4c0,0-0.1,0-0.1,0c-0.3,0-0.5,0-0.8,0.2c0-0.5,0.4-0.9,0.8-0.9c0.3,0,0.7,0.1,0.9,0.3
			c0.2,0.1,0.4,0.3,0.5,0.5c-0.2,0-0.4,0-0.6-0.1c0,0,0,0,0,0C14.5,26.3,14.3,26.3,14,26.4z"/>
		<path class="st9" d="M12.3,31.6c-0.4,0-0.7-0.2-1-0.3c0.6-0.6,1.4-0.7,2.1-0.4c0.1,0.1,0.2,0.1,0.3,0.2c-0.2,0.1-0.4,0.1-0.7,0.1
			C12.7,31.1,12.4,31.3,12.3,31.6z"/>
		<path class="st5" d="M4.2,30.7c0.3,0,0.5,0.1,0.8,0.2c0.5,0.1,0.9,0.3,1.4,0.3c0.2,0,0.3,0,0.4-0.1c0.2-0.1,0.3-0.2,0.4-0.4
			c0.2,0.5,0,0.8-0.5,0.8c-0.3,0-0.5-0.1-0.8,0c-0.1,0-0.2,0-0.3,0.1c-0.2,0.1-0.3,0.1-0.5,0c-0.3-0.1-0.6-0.3-0.8-0.6
			C4.3,30.8,4.2,30.8,4.2,30.7z"/>
		<path class="st5" d="M20.8,30.9c-0.5-0.1-0.9-0.3-1.2-0.8c-0.1-0.2-0.1-0.2,0.1-0.2c0.3,0,0.7,0,1,0c0.2,0.1,0.4,0.2,0.6,0.3
			C20.9,30.3,20.7,30.5,20.8,30.9z"/>
		<path class="st5" d="M11.5,35.7c0.1-0.3,0.3-0.5,0.5-0.7c0.1,0.2,0.1,0.4,0.2,0.6c0,0,0,0.1,0.1,0.1c0.1,0,0.1-0.1,0.1-0.1
			c0-0.1,0.1-0.2,0.2-0.3c0.1,0.3,0.2,0.6,0.3,0.9C12.5,36.4,11.8,36.2,11.5,35.7z"/>
		<path class="st7" d="M17.1,19.2c-0.1-0.1-0.2,0-0.3,0.1c-0.1,0-0.1,0.1-0.2,0.1c0.2-0.3,0.4-0.6,0.6-0.9c0.1-0.1,0.1-0.2-0.1-0.2
			c0.4-0.4,0.7-0.7,0.9-1.2c0.1,0.3,0.1,0.6-0.1,0.9c-0.2,0.3-0.4,0.6-0.6,0.8C17.2,18.9,17.1,19,17.1,19.2z"/>
		<path class="st5" d="M6.8,29.7c0.1,0.2,0.3,0.1,0.5,0.1C7,30,6.8,30,6.6,30c-0.6,0-1.2,0.1-1.8,0.2c0.1-0.3,0-0.6-0.2-0.8
			c-0.1-0.1-0.1-0.1-0.2-0.2c0,0,0,0,0,0c0.2,0.1,0.4,0.2,0.7,0.4C5.6,29.8,6.2,29.9,6.8,29.7z"/>
		<path class="st5" d="M8.6,28.6c0-0.1,0.1-0.1,0.2-0.2c0.5-0.3,1-0.4,1.5-0.4c0.7,0.1,1.4,0.4,2.1,0.7c-0.1,0-0.2,0-0.3,0
			c-0.7-0.2-1.4-0.4-2.1-0.4C9.5,28.3,9,28.3,8.6,28.6z"/>
		<path class="st4" d="M12.3,31.6c0-0.2,0.4-0.4,0.7-0.3c0.2,0.1,0.5,0.1,0.7-0.1c0.2,0.1,0.3,0.3,0.4,0.6c0,0.1,0,0.1-0.1,0.1
			C13.4,31.8,12.9,31.8,12.3,31.6C12.4,31.6,12.4,31.6,12.3,31.6L12.3,31.6z"/>
		<path class="st5" d="M4.9,26.7c0.5,0.5,1.1,0.8,1.7,1c0,0.1-0.2,0-0.2,0.1c0,0.1,0.1,0.1,0.2,0.2C6.8,28,6.9,28.1,7,28.1
			c-0.5,0-0.9-0.2-1.3-0.5c-0.3-0.3-0.5-0.5-0.7-0.8C4.9,26.8,4.9,26.7,4.9,26.7z"/>
		<path class="st10" d="M13.1,26.6c0.2-0.2,0.5-0.2,0.8-0.2c0,0.1,0.1,0.2,0.2,0.3c0.1,0.2,0.1,0.4-0.2,0.4c-0.2,0-0.4,0-0.7-0.1
			C13,27,13,26.9,13.1,26.6C13,26.7,13.1,26.6,13.1,26.6L13.1,26.6z"/>
		<path class="st11" d="M11.7,29.6c-0.2,0.2-0.3,0.4-0.6,0.6c0-0.4,0-0.8,0.1-1.2c0.2-0.2,0.3-0.2,0.5,0c0.1,0.1,0.1,0.2,0,0.4
			C11.8,29.5,11.7,29.5,11.7,29.6z"/>
		<path class="st11" d="M10.9,29.4c0,0.1-0.1,0.2-0.2,0.3c-0.1,0.1-0.1,0.1-0.2,0.1c-0.1,0-0.1-0.1-0.1-0.2
			c-0.1-0.3-0.1-0.6-0.1-0.9c0.3-0.1,0.5,0.1,0.6,0.4c0,0.1,0,0.1,0.1,0.1C11,29.3,11,29.3,10.9,29.4C10.9,29.4,10.9,29.4,10.9,29.4
			z"/>
		<path class="st5" d="M4.7,29.1c0.4,0,0.8,0.1,1.2,0c0,0,0.1,0,0.1,0.1c0.1,0.3,0.1,0.3,0.4,0.3c0.1,0,0.1,0,0.2,0
			c-0.1,0.1-0.3,0.1-0.4,0.1C5.6,29.7,5.1,29.5,4.7,29.1C4.7,29.1,4.7,29.1,4.7,29.1z"/>
		<path class="st11" d="M15.2,30.6c-0.1,0.1-0.1,0-0.1,0c-0.1-0.2-0.2-0.5-0.3-0.8c-0.1-0.2-0.1-0.4-0.2-0.6c0.2,0,0.3,0,0.5,0
			c0.1,0,0.1,0.1,0.1,0.2C15.2,29.8,15.1,30.2,15.2,30.6z"/>
		<path class="st10" d="M14.7,26.5c0.2,0.1,0.4,0.1,0.6,0.1c0,0,0,0,0,0c0,0,0,0,0,0c0,0.4-0.4,0.7-0.8,0.6c-0.1,0-0.2-0.2-0.1-0.3
			C14.5,26.7,14.7,26.7,14.7,26.5z"/>
		<path class="st7" d="M20.8,22.7c-0.2-0.1-0.4-0.3-0.6-0.5c0.1,0,0.3,0,0.4-0.1c0.1,0,0.3-0.1,0.3-0.2c0.1-0.1,0.2-0.2,0.4-0.2
			c0.2,0,0.4-0.1,0.7-0.1c-0.1,0.1-0.2,0.1-0.3,0.2c-0.2,0.1-0.3,0.2-0.5,0.3C20.9,22.2,20.8,22.4,20.8,22.7z"/>
		<path class="st7" d="M19.4,18.1c-0.2,0.1-0.3,0.2-0.5,0.4c0-0.2,0-0.3,0.1-0.5c0.1-0.3,0.3-0.5,0.5-0.7c0,0,0,0,0,0c0,0,0,0,0,0
			c0.1,0,0.2-0.1,0.3-0.1l0,0c-0.2,0.3-0.3,0.5-0.4,0.8C19.4,18,19.4,18.1,19.4,18.1z"/>
		<path class="st12" d="M11.7,29.6c0-0.1,0-0.1,0-0.2c0-0.1,0-0.3,0-0.4c-0.1-0.2-0.3-0.2-0.5,0c0-0.1,0-0.2,0-0.3
			c0-0.1,0-0.1,0.1-0.1c0.3,0.1,0.5,0.1,0.8,0.2c0.1,0,0.1,0.1,0.1,0.1C12.1,29.2,12,29.5,11.7,29.6z"/>
		<path class="st12" d="M15.2,30.6c-0.1-0.4,0-0.8,0-1.2c0-0.1,0-0.2-0.1-0.2c0.1,0,0.3,0,0.4-0.1c0.1,0,0.1,0,0.1,0.1
			C15.4,29.7,15.4,30.1,15.2,30.6C15.2,30.6,15.2,30.6,15.2,30.6z"/>
		<path class="st7" d="M20.3,23.1c0.4,0.1,0.7,0.1,1.1,0.1c-0.3,0.3-0.6,0.3-0.9,0.4c-0.1,0-0.1,0-0.1-0.1
			C20.4,23.4,20.3,23.3,20.3,23.1z"/>
		<path class="st5" d="M5.8,27.9c-0.2,0-0.5,0.1-0.7,0c0-0.1,0.1-0.3,0-0.4c0-0.1,0-0.3-0.1-0.4c0.1,0.1,0.2,0.2,0.3,0.3
			C5.5,27.6,5.7,27.7,5.8,27.9z"/>
		<path class="st11" d="M17.1,29.3c0,0.1,0,0.4-0.1,0.4c-0.2,0-0.2-0.2-0.3-0.3c0-0.1-0.1-0.1-0.1-0.2c-0.1-0.3-0.1-0.3,0.2-0.3
			C16.9,29,17,29.1,17.1,29.3z"/>
		<path class="st12" d="M11,29.3c-0.1,0,0-0.1-0.1-0.1c-0.1-0.3-0.3-0.4-0.6-0.4c0-0.1,0-0.1,0-0.2c0-0.1,0-0.1,0.1-0.1
			c0.2,0,0.3,0.1,0.5,0.1c0.1,0,0.2,0.1,0.2,0.2C11,29,11.1,29.1,11,29.3z"/>
		<path class="st7" d="M6.4,22.5c0-0.1,0-0.2-0.1-0.3c0.3,0.1,0.6,0.1,0.8,0C7,22.5,7,22.6,6.6,22.5C6.5,22.5,6.4,22.5,6.4,22.5z"/>
		<path class="st10" d="M14,26.4c0.3-0.1,0.6-0.1,0.7,0.1c-0.2,0-0.3,0.2-0.4,0.4C14.2,26.7,14.1,26.6,14,26.4z"/>
		<path class="st5" d="M13.1,29c0.1,0,0.2,0,0.2,0c0.3,0,0.6,0,0.9-0.2c0,0.2-0.1,0.4-0.4,0.4C13.5,29.2,13.3,29.1,13.1,29z"/>
		<path class="st5" d="M21,29.9c0.4,0,0.7-0.1,1-0.1c0,0,0.1,0,0.2,0c-0.2,0.2-0.5,0.3-0.7,0.4C21.3,30.1,21.1,30,21,29.9z"/>
		<path class="st12" d="M17.1,29.3c-0.1-0.2-0.2-0.3-0.3-0.4c0.1-0.1,0.2-0.1,0.4-0.1c0.1,0,0.1,0,0.1,0.1
			C17.2,29,17.2,29.2,17.1,29.3z"/>
		<path class="st5" d="M12.5,28.8C12.5,28.8,12.5,28.8,12.5,28.8C12.5,28.8,12.5,28.8,12.5,28.8z"/>
		<path class="st13" d="M21.8,27C21.8,26.9,21.8,26.9,21.8,27C21.8,26.9,21.9,26.9,21.8,27C21.9,26.9,21.9,27,21.8,27z"/>
		<path class="st5" d="M4.4,29.2C4.4,29.2,4.4,29.2,4.4,29.2C4.4,29.2,4.4,29.2,4.4,29.2C4.4,29.2,4.4,29.2,4.4,29.2
			C4.4,29.2,4.4,29.2,4.4,29.2z"/>
		<path class="st12" d="M10.9,29.4C10.9,29.4,10.9,29.4,10.9,29.4C11,29.4,11,29.4,10.9,29.4z"/>
		<path class="st13" d="M10.3,15.7C10.4,15.7,10.4,15.7,10.3,15.7C10.3,15.7,10.3,15.7,10.3,15.7C10.3,15.7,10.3,15.7,10.3,15.7z"/>
		<path class="st1" d="M9.4,20.6C9.4,20.6,9.4,20.6,9.4,20.6C9.4,20.6,9.4,20.6,9.4,20.6C9.4,20.6,9.4,20.6,9.4,20.6
			C9.4,20.6,9.4,20.6,9.4,20.6z"/>
		<path class="st9" d="M12.3,31.6C12.4,31.6,12.4,31.6,12.3,31.6C12.4,31.6,12.3,31.6,12.3,31.6z"/>
		<path class="st1" d="M16.8,17.3C16.8,17.3,16.8,17.3,16.8,17.3C16.8,17.3,16.8,17.3,16.8,17.3z"/>
		<polygon class="st5" points="5,27.1 5,27.1 5,27.1 		"/>
		<path class="st1" d="M19.5,17.2C19.5,17.3,19.5,17.3,19.5,17.2C19.4,17.2,19.5,17.2,19.5,17.2z"/>
		<path class="st5" d="M4.3,29.2C4.3,29.2,4.3,29.1,4.3,29.2C4.3,29.1,4.4,29.1,4.3,29.2C4.4,29.2,4.4,29.2,4.3,29.2z"/>
		<path class="st8" d="M15.3,26.6C15.3,26.6,15.3,26.6,15.3,26.6C15.3,26.6,15.3,26.6,15.3,26.6z"/>
		<path class="st7" d="M19.8,17.2C19.8,17.1,19.8,17.1,19.8,17.2C19.8,17.1,19.8,17.1,19.8,17.2C19.8,17.2,19.8,17.2,19.8,17.2
			C19.8,17.2,19.8,17.2,19.8,17.2z"/>
		<path class="st6" d="M16,26C16.1,26,16.1,26,16,26C16.1,26,16.1,26,16,26z"/>
		<path class="st1" d="M12.3,26C12.2,26,12.2,26,12.3,26C12.2,26,12.2,26,12.3,26C12.2,26,12.2,26,12.3,26z"/>
		<path class="st5" d="M22.2,29.7C22.2,29.7,22.2,29.7,22.2,29.7C22.2,29.7,22.2,29.7,22.2,29.7z"/>
		<path class="st5" d="M14.2,28.7C14.2,28.7,14.2,28.7,14.2,28.7C14.2,28.7,14.2,28.7,14.2,28.7z"/>
		<path class="st13" d="M5.6,21.3C5.6,21.4,5.6,21.4,5.6,21.3C5.6,21.4,5.6,21.3,5.6,21.3z"/>
		<path class="st1" d="M8.8,16C8.7,16,8.7,16,8.8,16C8.7,16,8.8,16,8.8,16C8.8,16,8.8,16,8.8,16z"/>
		<path class="st7" d="M10.7,13.2C10.7,13.1,10.6,13.1,10.7,13.2C10.6,13.1,10.6,13.1,10.7,13.2C10.7,13.1,10.7,13.2,10.7,13.2
			C10.7,13.2,10.7,13.2,10.7,13.2z"/>
		<path class="st8" d="M13.1,26.6C13.1,26.6,13,26.7,13.1,26.6C13,26.6,13,26.6,13.1,26.6z"/>
		<path class="st7" d="M12.8,16.7C12.7,16.7,12.7,16.6,12.8,16.7C12.7,16.6,12.7,16.6,12.8,16.7C12.8,16.6,12.8,16.6,12.8,16.7
			L12.8,16.7z"/>
		<path class="st7" d="M12.8,16.7C12.8,16.7,12.8,16.7,12.8,16.7C12.8,16.7,12.8,16.7,12.8,16.7C12.8,16.7,12.8,16.7,12.8,16.7z"/>
		<path class="st0" d="M15.8,32.5c0.1,0,0.1,0,0.1,0.1c-0.1,0.1-0.2,0.2-0.3,0.2C15.5,32.9,15.3,33,15,33c-0.2,0-0.2,0.1-0.2,0.3
			c0,0.5-0.1,0.9-0.4,1.3c-0.1,0-0.3,0-0.3-0.2c0-0.1,0.1-0.2-0.1-0.3c-0.1,0-0.2,0.1-0.2,0.2c-0.1,0.1-0.1,0.3-0.3,0.4
			c-0.1,0-0.3,0-0.4-0.1c0,0-0.1-0.1-0.1-0.1c-0.2-0.4-0.3-0.4-0.5-0.1c-0.3,0.1-0.4,0-0.5-0.3c-0.1-0.4-0.1-0.7,0-1.1
			c0-0.1,0-0.2,0.1-0.2c0.1-0.1,0-0.2-0.1-0.3c-0.1,0-0.2-0.1-0.3-0.1c-0.1,0-0.1-0.1,0-0.2c0.1,0.1,0.2,0.1,0.3,0.1
			c0.3,0.2,0.6,0.3,1,0.4c0.8,0.2,1.6,0.3,2.4,0.1C15.5,32.8,15.7,32.7,15.8,32.5z M12.2,34.2c0.1,0.2,0.2,0.2,0.3,0
			c0.1-0.1,0.1-0.2,0.3-0.2c0.2,0,0.3,0.2,0.5,0.3c0,0.1,0.1,0.2,0.2,0.2c0.1,0,0.2-0.1,0.2-0.1c0.1-0.1,0.2-0.3,0.3-0.4
			c0.1,0,0.3,0,0.3,0.1c0,0.1,0,0.1,0,0.2c0,0.1,0,0.1,0.1,0.2c0.1,0,0.1-0.1,0.1-0.1c0.1-0.2,0.1-0.4,0.1-0.6
			c0.1-0.1,0-0.2,0.1-0.3c0-0.3,0-0.3-0.2-0.3c-0.6,0-1.2-0.1-1.8-0.3c-0.3-0.1-0.3-0.1-0.3,0.2C12.1,33.4,12,33.8,12.2,34.2z"/>
		<path class="st5" d="M14.4,34.6c0.3-0.4,0.4-0.9,0.4-1.3c0-0.2,0.1-0.3,0.2-0.3c0.2,0,0.5-0.1,0.7-0.2c0.1,0,0.2-0.1,0.3-0.2
			c0.1,0,0.1,0,0.2,0c0,0.1,0,0.2-0.1,0.3c-0.1,0.2-0.3,0.3-0.5,0.5c-0.4,0.3-0.7,0.6-0.9,1.1c0,0.1-0.1,0.2-0.1,0.2
			C14.5,34.7,14.4,34.7,14.4,34.6z"/>
		<path class="st5" d="M11.6,32.3c-0.1,0.1-0.1,0.1,0,0.2c0.1,0.1,0.2,0.1,0.3,0.1c0.1,0,0.2,0.1,0.1,0.3c0,0.1-0.1,0.2-0.1,0.2
			c-0.2-0.3-0.6-0.5-0.9-0.6c-0.3-0.1-0.5-0.2-0.8-0.3c-0.3-0.1-0.5-0.3-0.6-0.7C10.4,31.8,11,32.1,11.6,32.3z"/>
		<path class="st5" d="M15.8,32.5c-0.1,0.2-0.4,0.2-0.6,0.3c-0.8,0.2-1.6,0.1-2.4-0.1c-0.3-0.1-0.7-0.2-1-0.4c0.3,0,0.7,0.2,1,0.2
			c0.9,0.2,1.8,0.2,2.7-0.1C15.7,32.5,15.8,32.5,15.8,32.5z"/>
		<path class="st5" d="M12.5,34.4c0.3-0.3,0.3-0.3,0.5,0.1c0,0.1,0.1,0.1,0.1,0.1c0,0-0.1,0-0.1,0C12.8,34.8,12.7,34.8,12.5,34.4
			C12.6,34.5,12.5,34.5,12.5,34.4z"/>
		<path class="st5" d="M13.5,34.7c0.1-0.1,0.2-0.2,0.3-0.4c0.1-0.1,0.1-0.2,0.2-0.2c0.1,0,0,0.2,0.1,0.3c-0.1,0.1-0.2,0.2-0.2,0.3
			c0,0.1-0.1,0.2-0.2,0.1C13.6,34.9,13.5,34.8,13.5,34.7z"/>
		<path class="st0" d="M11.9,26.9c0.1,0,0.2,0.1,0.2,0.2c0,0.1-0.1,0.2-0.2,0.2c-0.1,0-0.2-0.1-0.2-0.2C11.7,27,11.8,26.9,11.9,26.9
			z"/>
		<path class="st0" d="M10.7,27.7c-0.1,0-0.2-0.1-0.2-0.2c0-0.1,0.1-0.2,0.2-0.2c0.1,0,0.2,0.1,0.2,0.2
			C10.9,27.6,10.9,27.7,10.7,27.7z"/>
		<path class="st0" d="M17,27.3c0,0.1-0.1,0.2-0.2,0.2c-0.1,0-0.2-0.1-0.2-0.2c0-0.1,0.1-0.2,0.2-0.2C16.9,27.1,17,27.1,17,27.3z"/>
		<path class="st0" d="M17,28.3c0,0-0.1,0-0.1,0c-0.1,0-0.2-0.1-0.2-0.3c0-0.1,0.1-0.2,0.2-0.1C17.2,27.9,17.2,28.1,17,28.3z"/>
		<path class="st0" d="M11.7,27.9c0-0.1,0.1-0.2,0.2-0.2c0.1,0,0.2,0.1,0.2,0.2c0,0.1-0.1,0.2-0.2,0.2C11.7,28.1,11.7,28,11.7,27.9z
			"/>
		<path class="st0" d="M17.8,27.4c0.1,0,0.2,0.1,0.2,0.2c0,0.1-0.1,0.2-0.2,0.2c-0.1,0-0.2-0.1-0.2-0.2
			C17.6,27.4,17.7,27.4,17.8,27.4z"/>
		<path class="st5" d="M18.7,32.4C18.7,32.4,18.7,32.4,18.7,32.4C18.7,32.4,18.7,32.4,18.7,32.4C18.7,32.4,18.7,32.4,18.7,32.4
			C18.7,32.4,18.7,32.4,18.7,32.4z"/>
		<path class="st0" d="M9.4,23.6c0.1,0,0.2-0.1,0.4-0.1c0.1,0,0.2,0,0.2,0.1c0,0.1,0,0.1-0.1,0.2c-0.1,0.1-0.3,0.1-0.3,0.3
			c0,0-0.1,0-0.1,0c0,0-0.1,0-0.1,0c-0.1,0.1-0.3,0.2-0.4,0c-0.3,0-0.2-0.2-0.2-0.3c0-0.1,0-0.2,0.1-0.1c0.1,0,0.2,0,0.2-0.2
			c0-0.1,0-0.2,0.1-0.1c0.2,0.1,0.3-0.2,0.4,0c0,0.1,0,0.1,0,0.2C9.5,23.4,9.4,23.5,9.4,23.6z"/>
		<path class="st2" d="M7,21.3c-0.5-0.3-0.8-0.8-0.9-1.4c0-0.2,0-0.5,0-0.7c0-0.3-0.2-0.6-0.4-0.8c-0.1-0.1-0.2-0.1-0.3-0.2
			C5.8,18,6.1,18,6.5,18.1c0.2,0.1,0.4,0.3,0.6,0.4c-0.1,0.1-0.1,0-0.2,0.1c0.2,0.1,0.4,0.2,0.5,0.4c0,0,0,0,0,0
			c-0.1,0-0.1,0-0.2-0.1c0,0,0,0,0,0c0,0,0,0,0,0c0,0.1,0.1,0.2,0.1,0.3c0.1,0.1,0,0.1-0.1,0.2c-0.2,0-0.3,0-0.5,0
			c0.1,0.1,0.1,0.1,0.1,0.2c0.1,0.2,0.3,0.2,0.2,0.5C7,20.4,7,20.4,6.7,20.4c0,0,0,0,0,0c0,0,0,0,0,0c0,0.1,0.1,0.2,0.1,0.2
			C6.9,20.8,7.1,21,7,21.3z"/>
		<path class="st5" d="M6.7,20.4c0.3,0,0.3,0,0.4-0.3c0.1-0.3-0.1-0.3-0.2-0.5c0-0.1-0.1-0.1-0.1-0.2c0.2,0,0.3,0,0.5,0
			c0.1,0,0.1-0.1,0.1-0.2c0-0.1-0.1-0.2-0.1-0.3l0,0c0.1,0,0.1,0,0.2,0c0,0,0,0,0,0c0,0,0,0,0,0c-0.1-0.2-0.3-0.3-0.5-0.4
			c0-0.1,0.1,0,0.2-0.1c-0.2-0.1-0.4-0.3-0.6-0.4c-0.1-0.2-0.3-0.3-0.4-0.5c0-0.1-0.1-0.1-0.1-0.2c0.4,0.3,0.8,0.5,1.2,0.7
			c0.5,0.3,0.9,0.7,1.1,1.2c0.1,0.2,0.2,0.5,0.2,0.8c-0.4-0.1-0.8-0.3-1.2-0.4c-0.1,0-0.1-0.1-0.2,0c-0.1,0.1,0,0.1,0,0.2
			c0.1,0.2,0.2,0.4,0.2,0.6c0,0.1,0,0.1-0.1,0.1c-0.1,0-0.3,0-0.4-0.1c-0.1,0-0.1,0-0.1,0.1C6.7,20.6,6.7,20.5,6.7,20.4
			C6.7,20.4,6.7,20.4,6.7,20.4z M7.2,18.5C7.2,18.5,7.2,18.5,7.2,18.5C7.2,18.5,7.2,18.5,7.2,18.5C7.2,18.5,7.2,18.5,7.2,18.5
			C7.2,18.5,7.2,18.5,7.2,18.5z"/>
		<path class="st0" d="M6.8,20.6c0-0.1,0-0.1,0.1-0.1c0.1,0,0.3,0,0.4,0.1c0.1,0,0.1,0,0.1-0.1c0-0.2-0.1-0.4-0.2-0.6
			c0,0-0.1-0.1,0-0.2c0.1-0.1,0.1,0,0.2,0c0.4,0.1,0.8,0.3,1.2,0.4c0-0.3-0.1-0.5-0.2-0.8c-0.2-0.5-0.6-0.9-1.1-1.2
			c-0.4-0.2-0.8-0.4-1.2-0.7c0,0,0,0,0,0c0,0,0,0,0,0c-0.1-0.2-0.3-0.4-0.3-0.7c0-0.1,0-0.1,0.1-0.1c0.1,0,0.1,0.1,0.1,0.1
			c0,0.3,0.2,0.6,0.4,0.8c0.3,0.3,0.7,0.4,1,0.6c0.8,0.4,1.3,1.1,1.4,2c0,0.3,0,0.3-0.2,0.2c-0.3-0.1-0.6-0.2-0.9-0.3
			c0.1,0.2,0.1,0.4,0.1,0.7c0,0.1,0,0.2-0.2,0.2c-0.1,0-0.2,0-0.4,0c0.1,0.2,0.2,0.4,0.1,0.6c0,0.1,0,0.1-0.1,0.1
			c-0.1,0,0-0.1,0-0.2C7.1,21,6.9,20.8,6.8,20.6z"/>
		<path class="st5" d="M6,17.3C6,17.3,6,17.3,6,17.3C6,17.3,6,17.3,6,17.3z"/>
		<path class="st7" d="M7.8,20.3C7.8,20.3,7.8,20.3,7.8,20.3C7.8,20.3,7.8,20.3,7.8,20.3C7.8,20.3,7.8,20.3,7.8,20.3
			C7.8,20.3,7.8,20.3,7.8,20.3z"/>
		<path class="st0" d="M18.2,24.6c0,0-0.1,0-0.1-0.1c-0.1,0-0.1-0.1-0.1-0.1c0-0.1,0.1-0.1,0.1-0.1c0.1,0,0.1,0,0.2,0
			c0.2,0,0.3,0,0.4-0.2c0-0.1,0.1-0.1,0.2-0.1c0.1,0,0.1,0.1,0.1,0.1c0,0.1,0,0.1,0.1,0.2c0.1,0,0.1,0.2,0,0.2
			c-0.1,0-0.1,0.1-0.1,0.2c0,0.2-0.2,0.2-0.3,0.3c0,0-0.1,0-0.1,0c0-0.3-0.3-0.1-0.4-0.3C18.1,24.7,18.1,24.6,18.2,24.6z"/>
		<path class="st2" d="M22.6,18.8c0,0.2-0.1,0.4-0.3,0.6c-0.2,0.2-0.2,0.3,0.1,0.4c-0.2,0.4-0.8,1-1.3,0.9c-0.2,0-0.2,0-0.1,0.2
			c0,0.1,0.1,0.2,0.2,0.2c0.1,0.1,0.1,0.1,0,0.2c-0.2,0.1-0.5,0.2-0.7,0.2c0,0,0,0-0.1,0c0-0.3,0.2-0.3,0.4-0.4
			c-0.1-0.1-0.1-0.2-0.1-0.3c0,0,0-0.1,0-0.1c-0.1-0.2,0-0.3,0.1-0.4c0.2-0.3,0.4-0.5,0.7-0.8c-0.1,0-0.2,0.1-0.3,0.1
			c-0.2,0.1-0.4,0.1-0.6,0.2l0,0c0.2-0.3,0.4-0.5,0.7-0.6c0.2-0.1,0.4-0.1,0.7-0.2c0,0,0.1,0,0.1,0c0,0,0.1,0,0.1,0
			C22.4,18.9,22.5,18.8,22.6,18.8z"/>
		<path class="st0" d="M22.1,19c0,0-0.1,0-0.1,0c-0.2,0-0.4,0-0.6,0c-0.6,0-1.1,0.3-1.5,0.8c-0.1,0.1-0.1,0.1-0.2,0.2
			c-0.2,0.1-0.3,0.2-0.2,0.3c0,0.2,0.2,0.3,0.3,0.3c0.2,0,0.3,0,0.5,0c0.1,0,0.1,0,0.2,0.1c0,0.1,0,0.1-0.1,0.1
			c-0.2,0.1-0.3,0.2-0.4,0.3c-0.1,0-0.1,0.1-0.1,0.2c0,0.1,0.1,0.1,0.2,0.1c0.1,0,0.2,0,0.3,0c0,0,0,0,0.1,0c-0.1,0.1-0.4,0.2-0.5,0
			c-0.2-0.1-0.2-0.3-0.1-0.4c0.1-0.1,0.2-0.2,0.4-0.4c-0.1,0-0.3,0-0.4,0c-0.3,0-0.5-0.2-0.5-0.4c0-0.2,0.1-0.4,0.3-0.5
			c0.1,0,0.1-0.1,0.1-0.1c0.4-0.6,1-0.9,1.7-0.9c0.2,0,0.4,0,0.7,0c0.2-0.1,0.4-0.1,0.5-0.3c0,0,0.1-0.1,0.1-0.1
			c0.1,0.1,0,0.1,0,0.2c-0.1,0.1-0.2,0.2-0.3,0.3c-0.1,0-0.2,0.1-0.3,0.1C22.2,18.9,22.2,18.9,22.1,19z"/>
		<path class="st14" d="M14.2,34.1C14.1,34,14,34.1,13.9,34c-0.1-0.2-0.1-0.4-0.1-0.5c0,0.3-0.3,0.5-0.4,0.8c0,0,0-0.1-0.1-0.1
			c0,0.1,0,0.1,0,0.2C13.1,34.2,13,34,12.7,34c-0.1-0.1-0.2-0.2-0.2-0.4c-0.1,0.2-0.2,0.3-0.2,0.4c0,0.1-0.1,0.2-0.2,0.2
			c-0.2-0.4-0.1-0.8,0.1-1.2c0.1-0.1,0.2-0.1,0.3,0.1c0,0.1,0.1,0.1,0.1,0C12.9,33,13,33,13,33.2c0,0.2,0.1,0.2,0.3,0.1
			c0.2-0.1,0.3-0.2,0.5-0.1c0.1,0.1,0.2,0.1,0.3,0c0.1-0.1,0.2,0,0.3,0c0,0,0.1,0.1,0.1,0.1c0,0.1,0,0.2-0.1,0.3
			c-0.1-0.1-0.1-0.1-0.2,0C14.3,33.9,14.3,34,14.2,34.1z"/>
		<path class="st15" d="M14.6,33.4c-0.1,0-0.1-0.1-0.1-0.1c-0.1-0.1-0.2-0.1-0.3,0c-0.1,0.1-0.2,0.1-0.3,0c-0.2-0.1-0.4,0-0.5,0.1
			c-0.2,0.1-0.2,0.1-0.3-0.1c0-0.2-0.1-0.3-0.3-0.2c-0.1,0-0.1,0-0.1,0c-0.1-0.1-0.2-0.1-0.3-0.1c0-0.3,0-0.3,0.3-0.2
			c0.6,0.2,1.2,0.3,1.8,0.3C14.6,33.1,14.6,33.1,14.6,33.4z"/>
		<path class="st15" d="M13.2,34.4c0-0.1,0-0.1,0-0.2c0.1,0,0.1,0.1,0.1,0.1c0.2-0.2,0.4-0.4,0.4-0.8c0,0.2,0,0.4,0.1,0.5
			c-0.2,0.1-0.2,0.3-0.3,0.4c0,0.1-0.1,0.2-0.2,0.1C13.3,34.5,13.2,34.5,13.2,34.4z"/>
		<path class="st15" d="M14.2,34.1c0.1-0.1,0.1-0.3,0.2-0.4c0.1-0.1,0.1-0.1,0.2,0c0,0.2-0.1,0.4-0.1,0.6c0,0.1-0.1,0.1-0.1,0.1
			c-0.1,0,0-0.1-0.1-0.2C14.2,34.3,14.2,34.2,14.2,34.1z"/>
		<path class="st15" d="M12.2,34.2c0.1,0,0.2-0.1,0.2-0.2c0-0.1,0.1-0.2,0.2-0.4c0,0.2,0.1,0.3,0.2,0.4c-0.1,0-0.2,0.1-0.3,0.2
			C12.4,34.4,12.3,34.4,12.2,34.2z"/>
		<path class="st5" d="M6.7,20.4C6.7,20.4,6.7,20.4,6.7,20.4C6.7,20.4,6.7,20.4,6.7,20.4C6.7,20.4,6.7,20.4,6.7,20.4z"/>
		<path class="st5" d="M7.2,18.9C7.2,18.9,7.2,18.9,7.2,18.9C7.2,18.9,7.2,18.9,7.2,18.9C7.2,18.9,7.2,18.9,7.2,18.9z"/>
		<path class="st2" d="M7.2,18.5C7.2,18.5,7.2,18.5,7.2,18.5C7.2,18.5,7.2,18.5,7.2,18.5C7.2,18.5,7.2,18.5,7.2,18.5
			C7.2,18.5,7.2,18.5,7.2,18.5z"/>
		<path class="st2" d="M7.4,18.9C7.4,18.9,7.4,19,7.4,18.9C7.4,19,7.4,19,7.4,18.9C7.4,18.9,7.4,18.9,7.4,18.9z"/>
		<path class="st5" d="M20.4,21.5c-0.1,0-0.2,0-0.3,0c-0.1,0-0.1,0-0.2-0.1c0-0.1,0-0.1,0.1-0.2c0.1-0.1,0.3-0.2,0.4-0.3
			c0.1,0,0.1-0.1,0.1-0.1c0-0.1-0.1-0.1-0.2-0.1c-0.2,0-0.3,0.1-0.5,0c-0.2,0-0.3-0.1-0.3-0.3c0-0.2,0.1-0.3,0.2-0.3
			c0.1,0,0.1-0.1,0.2-0.2c0.4-0.5,0.9-0.8,1.5-0.8c0.2,0,0.4,0,0.6,0c-0.2,0.1-0.4,0.1-0.7,0.2c-0.3,0.1-0.5,0.3-0.7,0.6
			c0,0,0,0,0,0c0,0,0,0,0,0c0.2-0.1,0.4-0.1,0.6-0.2c0.1,0,0.1,0,0.3-0.1c-0.2,0.3-0.5,0.5-0.7,0.8c-0.1,0.1-0.2,0.2-0.1,0.4
			c0,0,0,0.1,0,0.1c-0.1,0.1,0,0.2,0.1,0.3C20.6,21.2,20.4,21.2,20.4,21.5z"/>
		<path class="st5" d="M22.1,19c0,0,0.1,0,0.1,0C22.2,19,22.2,19,22.1,19z"/>
		<path class="st2" d="M20.6,19.7C20.6,19.7,20.6,19.7,20.6,19.7C20.6,19.7,20.6,19.7,20.6,19.7C20.6,19.7,20.6,19.7,20.6,19.7z"/>
	</g>
</g>
</svg>
